<?xml version="1.0" encoding="UTF-8" standalone="no"?>
<!-- Uploaded to: SVG Repo, www.svgrepo.com, Generator: SVG Repo Mixer Tools -->

<svg
   width="800px"
   height="800px"
   viewBox="0 -180 512 512"
   version="1.1"
   preserveAspectRatio="xMidYMid"
   id="svg30"
   sodipodi:docname="wildfly.svg"
   inkscape:version="1.1.2 (0a00cf5339, 2022-02-04)"
   xmlns:inkscape="http://www.inkscape.org/namespaces/inkscape"
   xmlns:sodipodi="http://sodipodi.sourceforge.net/DTD/sodipodi-0.dtd"
   xmlns="http://www.w3.org/2000/svg"
   xmlns:svg="http://www.w3.org/2000/svg">
  <defs
     id="defs34" />
  <sodipodi:namedview
     id="namedview32"
     pagecolor="#ffffff"
     bordercolor="#666666"
     borderopacity="1.0"
     inkscape:pageshadow="2"
     inkscape:pageopacity="0.0"
     inkscape:pagecheckerboard="0"
     showgrid="false"
     inkscape:zoom="0.805"
     inkscape:cx="400"
     inkscape:cy="400"
     inkscape:window-width="2560"
     inkscape:window-height="1043"
     inkscape:window-x="0"
     inkscape:window-y="0"
     inkscape:window-maximized="1"
     inkscape:current-layer="g28" />
  <g
     id="g28">
    <path
       d="m 208.88088,81.172826 c -3.70654,-1.11129 -7.50795,-2.02945 -11.32629,-2.88494 -1.90409,-0.43028 -3.83021,-0.83516 -5.75124,-1.21801 -1.92273,-0.3964 -3.85053,-0.77756 -5.77495,-1.12653 -0.95882,-0.17109 -1.93459,-0.34389 -2.86461,-0.48449 l -2.91035,-0.38624 c -1.96168,-0.25919 -3.9437,-0.55903 -5.87659,-0.72335 -1.95491,-0.18126 -3.88611,-0.41843 -5.86304,-0.55903 l -5.91048,-0.43029 c -3.95895,-0.1982 -7.92468,-0.40656 -11.90735,-0.48279 -1.9871,-0.0712 -3.97758,-0.0932 -5.97315,-0.10842 -1.99557,-0.0186 -3.99453,-0.0491 -5.99687,-0.0237 -3.98267,0.003 -8.06529,0.0728 -11.99036,0.17787 l -6.06294,0.26258 -5.92233,0.45908 -5.97146,0.63188 c -2.00404,0.22869 -3.98606,0.5082 -5.98332,0.75892 -3.989445,0.56581 -7.980575,1.19938 -11.971716,1.91256 -3.997916,0.71658 -8.002605,1.48906 -12.005602,2.30389 -8.051732,1.6161 -16.096688,3.30675 -24.08574,5.26505 -4.001302,0.98253 -7.987357,2.02775 -11.919206,3.18477 -2.037919,0.60647 -4.069062,1.24173 -6.061243,1.92781 0.731821,0.22531 1.489054,0.4252 2.25645,0.598 2.788375,0.63356 5.746155,0.99778 8.781858,1.40265 1.514465,0.20837 3.056033,0.42182 4.626401,0.69117 l 2.278471,0.4252 0.99101,0.14569 1.03844,0.11519 c 2.815481,0.26766 5.759708,0.18634 8.717487,0.0508 5.92064,-0.3117 11.893794,-1.09604 17.936405,-1.69572 3.015377,-0.29476 6.054469,-0.55903 9.154545,-0.60816 1.583921,-0.022 3.037405,0.0373 4.550175,0.0542 l 4.502725,0.0949 c 3.0086,0.0762 6.00195,0.18635 8.997,0.33373 l 0.14061,0.008 c 0.23885,-0.0661 0.4811,-0.14569 0.71996,-0.21006 l 0.74368,-0.1982 0.81144,-0.1982 c 0.54887,-0.144 1.08587,-0.23209 1.62796,-0.34728 1.07402,-0.1982 2.14126,-0.34897 3.19325,-0.46755 2.11924,-0.23547 4.20459,-0.35067 6.27639,-0.41843 4.12158,-0.12705 8.17709,-0.0474 12.21227,0.0542 4.02163,0.12366 8.01108,0.21514 11.99036,0.40318 3.96911,0.20328 7.93315,0.74707 11.89549,1.16888 3.95217,0.45739 7.92129,0.63865 11.84975,0.43706 l 4.38415,-0.23378 -4.14868,1.25359 c -2.85953,0.86226 -5.7614,1.1909 -8.67006,1.49413 -2.91034,0.29476 -5.82916,0.467563 -8.75475,0.599693 -5.86813,0.24733 -11.75319,0.31001 -17.66367,0.23039 -2.34623,-0.0491 -4.69416,-0.13722 -7.06072,-0.29646 -1.91256,0.0288 -3.81665,0.0779 -5.69872,0.17618 -1.9583,0.10503 -3.89289,0.25241 -5.77157,0.50482 -0.94527,0.12197 -1.86682,0.27952 -2.76127,0.46078 -0.44383,0.10503 -0.89445,0.18804 -1.31795,0.3117 l -0.64882,0.17449 -0.70471,0.21175 c -1.84481,0.55056 -3.66589,1.15872 -5.26336,1.88376 -0.32526,0.144 -0.63865,0.30154 -0.93172,0.4557 0.6522,0.27274 1.36708,0.53362 2.11754,0.77417 1.77535,0.555641 3.67266,1.018111 5.58014,1.434851 1.9007,0.41165 3.8895,0.79111 5.77157,1.09942 1.00456,0.16771 2.00404,0.32356 2.92389,0.43537 0.92156,0.13213 1.91426,0.22022 2.868,0.32356 3.85731,0.37607 7.75528,0.53362 11.6651,0.48957 3.89627,-0.0491 7.79763,-0.22869 11.68543,-0.58105 7.75697,-0.7081 15.48514,-1.82617 23.08626,-3.372821 3.79971,-0.76909 7.56724,-1.61102 11.30597,-2.55629 l 2.79684,-0.71657 2.7545,-0.74538 c 1.91764,-0.48957 3.63369,-1.045223 5.44461,-1.556813 3.61168,-1.11637 7.20641,-2.35301 10.89263,-3.51851 3.65741,-1.17735 7.39953,-2.24798 11.22804,-3.00013 l 0.30831,-0.47433 c 0.34558,-0.84193 -0.13552,-1.71097 -1.20784,-2.58001 -0.60308,-0.39301 -1.26545,-0.74706 -1.96,-1.05707 -1.72791,-0.7674 -3.57102,-1.34676 -5.41243,-1.92103 z"
       fill="#ffffff"
       opacity="0.7"
       id="path4"
       style="stroke-width:1.93887" />
    <path
       d="m 283.44706,108.04186 c 1.55851,1.05877 3.0103,2.1277 4.68061,3.19833 l 2.37334,1.57545 2.42924,1.56529 c 3.24916,2.07349 6.55929,4.06398 9.92194,5.99009 6.72362,3.86917 13.70303,7.36904 20.83829,10.48775 3.57949,1.56359 7.23012,2.95778 10.90617,4.24016 3.69638,1.27561 7.44696,2.35301 11.22635,3.21358 0.94357,0.20159 1.90748,0.43706 2.82564,0.59799 0.90631,0.18804 1.90579,0.35236 2.90696,0.51329 1.88715,0.29646 3.89458,0.5692 5.82408,0.77756 1.94475,0.20837 3.8895,0.36761 5.74785,0.39641 0.78434,0.0102 1.54496,-0.0102 2.25137,-0.0644 -0.23209,-0.24055 -0.47094,-0.48788 -0.73691,-0.72674 -1.28577,-1.19259 -2.82225,-2.34623 -4.40109,-3.44904 l -0.60477,-0.42351 -0.55733,-0.36761 c -0.36422,-0.24732 -0.76401,-0.47094 -1.15025,-0.71657 -0.79281,-0.454 -1.6195,-0.88767 -2.47159,-1.30779 -1.70589,-0.825 -3.49649,-1.58053 -5.32096,-2.29711 -1.75163,-0.68608 -3.53883,-1.3332 -5.33789,-1.9583 -2.3005,-0.59799 -4.56542,-1.25867 -6.80831,-1.95491 -5.63605,-1.7889 -11.19755,-3.70654 -16.6913,-5.7902 -2.73586,-1.04861 -5.45478,-2.13787 -8.12288,-3.33047 -2.65963,-1.20954 -5.3074,-2.43602 -7.7485,-4.15715 l -3.53714,-2.4987 4.08262,1.60425 c 3.66419,1.43315 7.48593,2.51055 11.38389,3.32538 3.8895,0.85041 7.82304,1.58392 11.65494,2.64439 3.83359,1.08079 7.65194,2.24798 11.50756,3.405 3.85561,1.17227 7.73325,2.38011 11.60411,3.80479 1.94136,0.71827 3.88611,1.48228 5.81731,2.37504 0.96898,0.44553 1.9278,0.92324 2.88324,1.45178 0.4811,0.27613 0.96221,0.53023 1.43654,0.83855 l 0.7098,0.44722 0.64203,0.42182 c 0.20837,0.13552 0.41335,0.28798 0.61832,0.42689 l 0.13553,0.0356 c 2.88832,0.80636 5.76309,1.64659 8.63956,2.5241 l 4.30622,1.32812 c 1.43824,0.46078 2.83751,0.86735 4.33164,1.38572 2.92898,1.0232 5.72752,2.23273 8.50065,3.46599 5.54118,2.47329 10.96208,5.10242 16.48293,7.26909 2.76297,1.06046 5.52932,2.0718 8.2889,2.70537 l 1.0198,0.21683 0.98424,0.17449 2.2971,0.31848 c 1.57884,0.23547 3.10686,0.52345 4.61116,0.80127 3.00521,0.57428 5.93249,1.1655 8.77338,1.43993 0.78095,0.0813 1.55851,0.12536 2.32252,0.1406 -1.67031,-1.27729 -3.39314,-2.51902 -5.13461,-3.73533 -3.36434,-2.33946 -6.81848,-4.58575 -10.30649,-6.78121 -6.95908,-4.38246 -14.06215,-8.52437 -21.19233,-12.60021 -3.54222,-2.03792 -7.0946,-4.03518 -10.66393,-5.97654 -3.56424,-1.93628 -7.14881,-3.79633 -10.7571,-5.59539 -1.816,-0.86734 -3.61506,-1.7601 -5.43953,-2.60881 l -5.46834,-2.48345 -5.47341,-2.30388 -5.66993,-2.15989 c -3.69129,-1.33659 -7.54521,-2.69182 -11.3246,-3.95387 -1.88715,-0.65728 -3.79801,-1.26036 -5.69872,-1.86852 -1.89731,-0.61662 -3.79293,-1.22478 -5.70211,-1.7872 -3.80479,-1.18243 -7.62992,-2.23443 -11.45165,-3.298281 l -5.74785,-1.45687 c -1.91426,-0.48618 -3.82173,-0.87242 -5.73429,-1.31795 -1.88716,-0.4557 -3.8624,-0.7962 -5.80714,-1.16888 l -2.87817,-0.55056 c -0.9351,-0.162633 -1.91256,-0.301543 -2.87477,-0.440453 -1.93627,-0.27782 -3.88949,-0.52515 -5.83424,-0.75723 -1.94644,-0.24394 -3.89966,-0.46756 -5.84102,-0.66068 -3.89627,-0.39301 -7.78916,-0.71827 -11.65324,-0.83346 -1.93289,-0.039 -3.86748,-0.0728 -5.74108,0.11181 -0.75384,0.0762 -1.49583,0.20328 -2.19038,0.38624 -1.29593,0.48618 -2.02775,1.15871 -1.96338,2.06671 l 0.1423,0.545483 c 3.39314,1.92273 6.6135,4.12158 9.70849,6.391581 3.12718,2.26662 6.15103,4.57728 9.22061,6.77274 z"
       fill="#ffffff"
       opacity="0.7"
       id="path6"
       style="stroke-width:1.93887" />
    <path
       d="m 126.34428,70.810436 c -17.40617,0.26765 -33.889095,3.06958 -51.093677,6.56098 -12.330856,2.50717 -34.43458,7.28095 -45.891314,12.27834 4.829684,4.41465 16.523583,4.43667 23.245501,5.712283 10.943443,2.0701 29.08652,-2.508873 40.505986,-2.618983 7.846754,-0.0762 15.532574,-0.0711 23.252274,0.35744 -1.45179,0.21006 -2.81379,0.46586 -4.02502,0.80128 -2.64777,0.736903 -10.79098,3.008603 -10.30988,5.603863 0.55903,2.969631 14.25358,5.410731 16.93015,5.896921 20.90435,3.76075 47.02124,-0.61663 68.36434,-6.540661 11.53974,-3.20341 18.55134,-7.226733 29.82342,-11.653243 -3.82851,0.75215 -7.57063,1.82278 -11.22804,3.00013 -3.68621,1.1655 -7.28095,2.40044 -10.89262,3.5185 -1.81092,0.5116 -3.52697,1.067243 -5.44462,1.556823 l -2.75449,0.74537 -2.79685,0.71658 c -3.73873,0.94527 -7.50625,1.7872 -11.30597,2.55629 -7.60112,1.546651 -15.32929,2.664711 -23.08626,3.372821 -3.88949,0.35236 -7.79085,0.53023 -11.68543,0.58105 -3.90982,0.0441 -7.80609,-0.1135 -11.6651,-0.48957 -0.95374,-0.10503 -1.94644,-0.19143 -2.86799,-0.32356 -0.91986,-0.11012 -1.91934,-0.26766 -2.9239,-0.43537 -1.88207,-0.31001 -3.87086,-0.68778 -5.77157,-1.09943 -1.90747,-0.41673 -3.80479,-0.8792 -5.58014,-1.434841 -0.75045,-0.24055 -1.46533,-0.50143 -2.11754,-0.77417 0.29307,-0.15416 0.60477,-0.3117 0.93172,-0.4557 1.59747,-0.72674 3.42025,-1.3332 5.26336,-1.88376 l 0.70471,-0.21175 0.64882,-0.17449 c 0.42351,-0.12197 0.87581,-0.20667 1.31796,-0.3117 0.89445,-0.18126 1.816,-0.33881 2.76127,-0.46078 1.87868,-0.25071 3.81326,-0.39979 5.77156,-0.50482 1.88207,-0.0983 3.78616,-0.14738 5.69872,-0.17618 2.36487,0.15924 4.71449,0.24733 7.06073,0.29646 5.91047,0.0796 11.79554,0.0169 17.66366,-0.23039 2.9256,-0.13214 5.84441,-0.304933 8.75476,-0.599693 2.90865,-0.30492 5.81053,-0.63357 8.67005,-1.49413 l 4.14869,-1.25359 -4.38416,0.23378 c -3.92846,0.20159 -7.89757,0.0203 -11.84975,-0.43706 -3.96403,-0.42351 -7.92807,-0.96729 -11.89549,-1.16888 -3.98097,-0.18635 -7.96872,-0.27952 -11.99035,-0.40318 -4.03519,-0.10164 -8.0907,-0.18126 -12.21228,-0.0542 -2.0718,0.0694 -4.15715,0.18295 -6.27638,0.41842 -1.052,0.11859 -2.11924,0.26936 -3.19325,0.46756 -0.54209,0.1135 -1.0791,0.20328 -1.62797,0.34727 l -0.81144,0.1982 -0.74368,0.19821 c -0.23885,0.0644 -0.4811,0.1423 -0.71996,0.21006 l -0.1406,-0.008 c -2.99505,-0.14738 -5.98671,-0.2575 -8.99701,-0.33373 l -4.502725,-0.0949 c -1.51277,-0.0153 -2.96625,-0.0745 -4.550169,-0.0542 -3.100078,0.0491 -6.139171,0.31339 -9.154547,0.60815 -6.040916,0.59969 -12.015765,1.38403 -17.936406,1.69573 -2.956085,0.13722 -5.900311,0.21684 -8.717486,-0.0508 l -1.03844,-0.11519 -0.991008,-0.14569 -2.278473,-0.4252 c -1.572061,-0.27105 -3.113631,-0.4828 -4.626401,-0.69117 -3.035703,-0.40487 -5.993484,-0.77078 -8.781859,-1.40266 -0.767396,-0.17109 -1.524628,-0.37268 -2.256449,-0.59799 1.992181,-0.68608 4.023324,-1.32134 6.061243,-1.92781 3.931848,-1.15702 7.917903,-2.20224 11.919206,-3.18478 7.989054,-1.9583 16.034007,-3.64894 24.085739,-5.26505 4.002997,-0.81483 8.007687,-1.5873 12.005602,-2.30388 3.991138,-0.71319 7.982278,-1.34506 11.971713,-1.91256 1.99896,-0.25072 3.98098,-0.53023 5.98332,-0.75893 l 5.97146,-0.63187 5.92234,-0.45908 6.06294,-0.26258 c 3.92507,-0.10503 8.00938,-0.17448 11.99035,-0.17787 2.00234,-0.0254 4.0013,0.005 5.99687,0.0237 1.99727,0.0152 3.98775,0.0356 5.97316,0.10841 3.98436,0.0762 7.94839,0.2846 11.90734,0.4828 l 5.91048,0.43029 c 1.97693,0.1406 3.90813,0.37777 5.86304,0.55903 1.93289,0.16432 3.91491,0.46247 5.8766,0.72335 l 2.91034,0.38624 c 0.93172,0.1406 1.90579,0.31339 2.86461,0.48449 1.92442,0.34897 3.85223,0.73013 5.77496,1.12653 1.92103,0.38285 3.84714,0.78773 5.75123,1.21801 3.81835,0.85549 7.61806,1.77365 11.3263,2.88494 1.84141,0.57258 3.68451,1.15363 5.40565,1.92272 0.69455,0.30831 1.35692,0.66237 1.95999,1.05708 -5.85965,-4.73313 -29.42193,-9.51877 -33.63669,-10.20654 -17.67213,-2.88494 -38.40199,-3.41178 -56.25878,-3.13904 z"
       fill="#e1eef4"
       opacity="0.5"
       id="path8"
       style="stroke-width:1.93887" />
    <path
       d="m 274.20782,89.285536 c 4.00638,-0.24394 7.99074,-0.1694 11.97172,0.005 3.97928,0.18634 7.95686,0.49804 11.93106,0.94696 0.99948,0.11181 1.98202,0.22531 3.01877,0.37099 v 0 l 2.97472,0.50144 c 1.95491,0.33541 3.90813,0.63695 5.88675,1.07232 1.97355,0.41165 3.97759,0.78264 5.9325,1.23664 v 0 l 5.87152,1.373863 c 3.89966,0.99609 7.79932,1.99218 11.67526,3.11363 1.94814,0.53023 3.88272,1.11298 5.81561,1.69573 l 1.93578,0.579351 c 1.28985,0.38775 2.57768,0.78152 3.8595,1.19938 3.88611,1.21293 7.67735,2.45804 11.60581,3.79802 v 0 l 5.71905,2.05655 5.77326,2.29711 5.66992,2.45634 c 1.87869,0.85718 3.72179,1.75502 5.58861,2.63253 3.70316,1.81261 7.37582,3.69468 10.99935,5.63774 3.63709,1.94474 7.24876,3.94201 10.83503,5.97993 3.60489,2.01759 7.15897,4.12835 10.7266,6.24758 3.56594,2.13448 7.12341,4.30793 10.65546,6.55252 3.53544,2.2429 7.04887,4.54847 10.51316,6.9811 3.46938,2.44788 6.88963,4.97707 10.17266,7.89758 v 0 l 3.13057,2.80023 -3.75567,1.60255 c -1.84649,0.78434 -3.71501,1.05369 -5.47003,1.12484 -1.75162,0.0762 -3.42871,-0.0542 -5.04821,-0.24224 -3.24915,-0.3981 -6.33059,-1.06216 -9.31548,-1.72622 -1.49075,-0.3405 -2.96455,-0.67084 -4.38415,-0.94358 v 0 l -2.22426,-0.38454 c -0.38286,-0.0695 -0.84363,-0.1711 -1.26545,-0.2575 v 0 l -1.20615,-0.29815 c -3.16106,-0.84362 -6.10529,-1.99048 -8.95465,-3.25084 -5.67162,-2.52072 -10.99087,-5.41074 -16.34401,-8.08053 -2.6681,-1.3349 -5.33451,-2.62406 -8.02971,-3.70315 -2.71215,-1.03675 -5.60386,-2.08197 -8.38207,-3.08822 -0.75384,-0.26936 -1.51446,-0.51838 -2.26831,-0.78265 0.49127,0.4845 0.97915,1.01981 1.45856,1.68048 0.40996,0.58106 0.85888,1.2502 1.13162,2.33438 0.11858,0.56411 0.19989,1.22986 0,1.99557 -0.039,0.19142 -0.1,0.36421 -0.18126,0.54886 v 0 l -0.11351,0.27274 -0.0627,0.13044 -0.12197,0.1999 -0.0811,0.12337 c -0.0442,0.0655 -0.12301,0.17605 -0.17128,0.24084 -0.19651,0.24225 -0.31848,0.35575 -0.44384,0.47433 -1.06047,0.91817 -1.88377,1.11298 -2.59695,1.33829 -0.71997,0.19481 -1.35015,0.29137 -1.9583,0.3693 -1.21123,0.1406 -2.33099,0.17448 -3.43211,0.17109 -2.19208,-0.007 -4.29606,-0.15246 -6.37803,-0.34388 -2.0989,-0.1999 -4.11141,-0.43876 -6.22556,-0.7403 -0.99779,-0.14738 -1.99219,-0.29645 -3.08314,-0.49973 -1.06724,-0.17618 -2.0718,-0.40149 -3.10177,-0.60816 -4.09787,-0.89784 -8.08731,-2.07689 -12.00222,-3.41517 -3.89119,-1.3349 -7.69259,-2.87985 -11.41099,-4.53662 -1.85836,-0.82668 -3.69299,-1.69742 -5.51238,-2.57323 -1.80923,-0.908 -3.6049,-1.81939 -5.37008,-2.77313 -3.54391,-1.89054 -7.00313,-3.88441 -10.41152,-5.94097 -3.39145,-2.05994 -6.72022,-4.18426 -9.9897,-6.38819 v 0 l -2.43771,-1.65507 -0.30323,-0.20837 -0.33712,-0.24732 -0.58444,-0.4269 -1.17396,-0.86226 c -1.55343,-1.10451 -3.11533,-2.43771 -4.64165,-3.69807 -2.96455,-2.58679 -5.69872,-5.32773 -8.27704,-8.15338 -2.56815,-2.82225 -5.08209,-5.644511 -7.49778,-8.620921 9.29685,7.758661 14.68217,13.791111 24.62275,20.475761 18.37855,12.35287 41.78667,24.7481 62.80283,27.77534 2.69181,0.38793 16.46429,2.39366 17.92963,-0.25072 1.27391,-2.30897 -5.73769,-7.0387 -8.01277,-8.56841 -1.04352,-0.69964 -2.25984,-1.37555 -3.57102,-2.03453 7.46051,2.03114 14.7584,4.4553 22.17826,7.00482 10.80114,3.70992 26.57088,13.77755 37.61089,15.26492 6.77951,0.91477 17.88558,4.58404 23.86043,1.91933 -9.29684,-8.35496 -28.76127,-19.8659 -39.66914,-26.13213 -15.22764,-8.74459 -29.98266,-16.6032 -46.41307,-22.35274 -16.8607,-5.89354 -36.69442,-11.936151 -54.37841,-14.780434 -4.21983,-0.6793 -28.08196,-3.5761 -35.1376,-0.93341 -0.16093,0.0423 -0.33372,0.0678 -0.48619,0.12028 -0.40148,0.1406 -0.78095,0.30323 -1.05369,0.5099 -0.1406,0.10164 -0.24055,0.21345 -0.31339,0.33373 -0.0373,0.0644 -0.0593,0.11688 -0.0762,0.15415 -0.0356,0.0186 -0.0305,0.20667 -0.0423,0.30323 v 0 l -1.20615,-0.0203 c -0.002,-0.13722 -0.0373,-0.18465 -0.003,-0.39302 0.008,-0.19481 0.0542,-0.3676 0.1118,-0.51329 0.11689,-0.31679 0.30832,-0.58783 0.52007,-0.81314 0.42351,-0.44383 0.92325,-0.74029 1.41452,-0.97068 0.99101,-0.45908 2.00065,-0.71996 3.00013,-0.9368 2.00912,-0.42012 4.01146,-0.63526 6.00873,-0.75215 z M 126.43576,67.889926 c 4.15038,-0.0288 8.14151,-0.0186 12.20888,0.0576 2.02437,0.0119 4.04196,0.0796 6.06294,0.14061 2.0159,0.0576 4.03688,0.11858 6.04939,0.23039 4.03179,0.15585 8.05004,0.44383 12.0615,0.72674 v 0 l 6.00534,0.55225 c 1.99896,0.18296 4.01655,0.46416 6.0172,0.69625 2.01929,0.21175 3.96573,0.54378 5.92911,0.83854 v 0 l 2.97981,0.46586 c 1.02997,0.18634 2.00065,0.38963 2.98318,0.59969 3.91322,0.82838 7.78238,1.7872 11.62275,2.86461 3.82682,1.09095 7.63162,2.27677 11.36187,3.77599 1.85666,0.7386 3.68791,1.57884 5.45987,2.60881 0.88428,0.52176 1.75501,1.08926 2.54951,1.83464 0.3981,0.37438 0.77587,0.81313 1.03167,1.36877 0.13383,0.27783 0.23208,0.598 0.23886,0.93003 0.008,0.15924 -0.005,0.33711 -0.0542,0.52345 -0.0356,0.21006 -0.083,0.24733 -0.12536,0.37438 v 0 l -1.15025,-0.36082 c 0.0136,-0.0966 0.0779,-0.26936 0.0542,-0.29815 -0.007,-0.0424 -0.0102,-0.10165 -0.0288,-0.17449 -0.0254,-0.13552 -0.0915,-0.27274 -0.19312,-0.41504 -0.18973,-0.28121 -0.49973,-0.55564 -0.83176,-0.81313 -0.12875,-0.0966 -0.2846,-0.17618 -0.42182,-0.26766 -5.85965,-4.73482 -29.42194,-9.51876 -33.63669,-10.20654 -17.68061,-2.88155 -38.40877,-3.40839 -56.26556,-3.13565 -17.40617,0.26935 -33.889095,3.07128 -51.093677,6.56098 -12.330856,2.50717 -34.43458,7.28264 -45.891314,12.27834 4.829684,4.41465 16.523583,4.43667 23.245501,5.712283 10.943443,2.0701 29.08652,-2.508863 40.505986,-2.618983 7.846754,-0.0762 15.532574,-0.0711 23.252274,0.35744 -1.45179,0.21006 -2.81379,0.46586 -4.02502,0.80128 -2.64947,0.736913 -10.79098,3.008603 -10.30988,5.603863 0.55903,2.967941 14.25358,5.410731 16.93015,5.896921 20.90266,3.76075 47.01954,-0.61663 68.36434,-6.540651 11.53804,-3.20342 18.55134,-7.226743 29.82342,-11.653253 -3.23052,2.06164 -6.50508,3.94371 -9.83385,5.81392 -3.34063,1.865133 -6.79984,3.604903 -10.43015,5.122753 -1.8448,0.71658 -3.7472,1.48736 -5.56659,2.041311 v 0 l -1.38741,0.45061 -0.69117,0.22192 -0.39471,0.12366 -0.35744,0.10503 -2.83581,0.80128 c -3.79293,1.05877 -7.62483,2.02267 -11.50078,2.91035 -3.87933,0.87412 -7.78746,1.67539 -11.7481,2.34962 -1.98033,0.34727 -3.97081,0.64712 -5.97147,0.93849 -2.00065,0.2558 -4.01485,0.50313 -6.0426,0.69794 -4.05043,0.39471 -8.14321,0.66576 -12.26141,0.70133 -4.13174,0.039 -8.29228,-0.10333 -12.46299,-0.54548 -1.0486,-0.12705 -2.06502,-0.23208 -3.14073,-0.39809 -1.09265,-0.15077 -2.08366,-0.32526 -3.07975,-0.49974 -2.09721,-0.37947 -4.08261,-0.78773 -6.13917,-1.26206 -2.03961,-0.47433 -4.07923,-1.00286 -6.16119,-1.68386 -1.0503,-0.35067 -2.09382,-0.73352 -3.20341,-1.24851 -0.55226,-0.26596 -1.12484,-0.55394 -1.74486,-0.96898 -0.60307,-0.43706 -1.32304,-0.8792 -2.0413,-2.08874 -0.0813,-0.15077 -0.157547,-0.29815 -0.264267,-0.58783 -0.0373,-0.10334 -0.0983,-0.301541 -0.10503,-0.338811 v 0 l -0.0271,-0.0864 -0.0491,-0.23039 -0.0203,-0.14399 -0.0271,-0.29307 c -0.0152,-0.20159 -0.0203,-0.39302 0.003,-0.58275 0.0542,-0.78942 0.342187,-1.39757 0.633567,-1.89054 0.59969,-0.94188 1.23833,-1.43823 1.80753,-1.86513 0.66067,-0.470943 1.28916,-0.821603 1.90917,-1.124833 -0.80127,0.0119 -1.59408,0.008 -2.39197,0.0237 -2.959465,0.0779 -6.027355,0.15247 -8.92754,0.28291 -2.898488,0.17109 -5.837634,0.555643 -8.792023,0.979153 -5.917253,0.84871 -11.876855,1.90748 -18.058376,2.51055 -3.101772,0.29307 -6.257752,0.45231 -9.520456,0.2558 v 0 l -1.241726,-0.0999 c -0.421813,-0.0491 -0.891061,-0.0949 -1.282381,-0.15415 v 0 l -2.227652,-0.33542 c -1.438234,-0.19312 -2.939145,-0.3405 -4.460384,-0.49127 -3.039093,-0.3134 -6.174745,-0.65051 -9.381546,-1.30271 -1.600861,-0.32864 -3.232212,-0.74199 -4.873729,-1.365393 -1.636435,-0.6234 -3.325385,-1.46534 -4.831378,-2.79346 v 0 l -3.056033,-2.70706 3.864085,-1.66015 c 4.036876,-1.72961 8.082224,-3.05604 12.146207,-4.28082 4.050429,-1.21293 8.114409,-2.29372 12.180086,-3.31014 4.053817,-1.01133 8.117797,-1.95491 12.176698,-2.85105 4.055511,-0.88429 8.089001,-1.76518 12.149594,-2.54613 4.04704,-0.7962 8.102552,-1.55343 12.166534,-2.25137 4.053817,-0.70302 8.133045,-1.32304 12.21904,-1.87868 2.04978,-0.24225 4.08262,-0.51499 6.1324,-0.73521 v 0 l 6.15103,-0.54209 6.20693,-0.35744 z"
       fill="#293644"
       id="path10"
       style="stroke-width:1.93887" />
    <path
       d="m 351.94353,143.12695 c 2.69182,0.38793 16.46429,2.39197 17.92963,-0.25072 1.27391,-2.30727 -5.73938,-7.03701 -8.01277,-8.56841 -1.04352,-0.69964 -2.25983,-1.37555 -3.57101,-2.03453 7.46051,2.03114 14.7584,4.4553 22.17826,7.00482 10.80114,3.70823 26.57257,13.77755 37.61088,15.26492 6.77952,0.91477 17.88559,4.58404 23.86044,1.91933 -9.29685,-8.35496 -28.76127,-19.8659 -39.66914,-26.13213 -15.22765,-8.74459 -29.98266,-16.60489 -46.41307,-22.35274 -16.859,-5.89354 -36.69272,-11.936151 -54.37841,-14.780434 -4.21984,-0.6793 -28.08196,-3.5761 -35.13761,-0.93341 0.69456,-0.18126 1.43654,-0.31001 2.19039,-0.38624 1.8719,-0.18634 3.80818,-0.15077 5.74107,-0.1118 3.86409,0.1135 7.75697,0.43875 11.65324,0.83346 1.94136,0.19143 3.89458,0.41673 5.84102,0.66067 1.94475,0.23208 3.89966,0.47941 5.83425,0.75723 0.96221,0.13891 1.94136,0.27783 2.87477,0.440453 l 2.87816,0.55056 c 1.94305,0.37438 3.91829,0.71488 5.80714,1.16888 1.91256,0.44723 3.82004,0.83177 5.7343,1.31796 l 5.74784,1.45687 c 3.82174,1.063851 7.64686,2.115841 11.45166,3.298281 1.90917,0.56242 3.80479,1.16888 5.70211,1.7872 1.9007,0.60646 3.81157,1.21123 5.69872,1.86852 3.77769,1.26205 7.6333,2.61728 11.3246,3.95387 l 5.66992,2.15989 5.47342,2.30388 5.46833,2.48345 c 1.82447,0.84871 3.62353,1.74146 5.43954,2.60881 3.60828,1.79906 7.19285,3.65911 10.7571,5.59538 3.56932,1.94136 7.1217,3.93863 10.66392,5.97655 7.13018,4.07414 14.23156,8.21774 21.19234,12.6002 3.48801,2.19547 6.94214,4.44175 10.30649,6.78121 1.74146,1.21632 3.46429,2.45804 5.13461,3.73534 -0.76401,-0.0152 -1.54157,-0.0593 -2.32252,-0.1406 -2.84089,-0.27444 -5.76648,-0.86565 -8.77339,-1.43993 -1.5043,-0.27782 -3.03232,-0.56581 -4.61115,-0.80128 l -2.29711,-0.31848 -0.98423,-0.17448 -1.01981,-0.21684 c -2.75958,-0.63357 -5.52593,-1.6449 -8.2889,-2.70536 -5.52254,-2.16667 -10.94174,-4.79581 -16.48292,-7.26909 -2.77313,-1.23326 -5.56998,-2.4428 -8.50065,-3.46599 -1.49414,-0.52007 -2.89341,-0.92494 -4.33164,-1.38572 l -4.30623,-1.32812 c -2.87477,-0.8792 -5.75124,-1.71944 -8.63956,-2.52411 l -0.13552,-0.0356 c -0.20498,-0.13891 -0.40996,-0.29138 -0.61832,-0.4269 l -0.64204,-0.42181 -0.7098,-0.44723 c -0.47263,-0.30831 -0.95374,-0.56242 -1.43654,-0.83854 -0.95543,-0.52854 -1.91426,-1.00795 -2.88324,-1.45179 -1.9312,-0.89275 -3.87594,-1.65845 -5.81731,-2.37503 -3.86916,-1.42468 -7.7468,-2.63252 -11.60411,-3.80479 -3.85562,-1.15703 -7.67396,-2.32422 -11.50756,-3.40501 -3.83189,-1.06046 -7.76544,-1.79398 -11.65493,-2.64438 -3.89797,-0.81314 -7.7197,-1.89223 -11.38389,-3.32538 l -4.08262,-1.60425 3.53714,2.49869 c 2.4411,1.72283 5.08887,2.94762 7.7485,4.15716 2.6681,1.1926 5.38702,2.28186 8.12288,3.33046 5.49205,2.08366 11.05355,4.00131 16.69129,5.7902 2.2412,0.69625 4.50612,1.35862 6.80831,1.95492 1.79906,0.62509 3.58627,1.27221 5.3379,1.9583 1.82277,0.71827 3.61506,1.47211 5.32095,2.2971 0.8521,0.42012 1.67878,0.85549 2.47159,1.30779 0.38624,0.24564 0.78603,0.46756 1.15025,0.71658 l 0.55733,0.3676 0.60477,0.42351 c 1.57884,1.10282 3.11533,2.25645 4.4011,3.44905 0.26427,0.23886 0.50482,0.48619 0.7369,0.72674 -0.70641,0.0542 -1.46703,0.0745 -2.25137,0.0644 -1.85835,-0.0305 -3.8014,-0.18803 -5.74785,-0.3964 -1.93119,-0.20836 -3.93693,-0.4811 -5.82408,-0.77756 -1.00117,-0.16093 -2.00065,-0.32356 -2.90695,-0.51329 -0.91817,-0.16093 -1.88207,-0.39471 -2.82565,-0.598 -3.77938,-0.86226 -7.52997,-1.93966 -11.22634,-3.21357 -3.67605,-1.28238 -7.325,-2.67657 -10.90618,-4.24016 -7.13526,-3.12041 -14.11467,-6.61858 -20.83828,-10.48775 -3.36265,-1.92612 -6.67279,-3.9166 -9.92194,-5.9901 l -2.42924,-1.56528 -2.37334,-1.57545 c -1.66862,-1.07063 -3.1221,-2.13956 -4.68061,-3.19833 -3.06959,-2.19716 -6.09513,-4.50613 -9.22061,-6.77444 -3.095,-2.271691 -6.31705,-4.470541 -9.7085,-6.391581 9.29685,7.758671 14.68217,13.791111 24.62275,20.475761 18.37685,12.35457 41.78498,24.7498 62.80113,27.77704 z"
       fill="#e1eef4"
       opacity="0.5"
       id="path12"
       style="stroke-width:1.93887" />
    <path
       d="m 199.13512,105.23654 c -0.2829,6.88963 3.84884,13.37269 7.76375,19.09682 5.79358,8.49049 2.71214,19.52033 2.9493,28.64946 0.36253,14.21123 -4.86187,70.65805 7.23521,84.03752 v 0 l 0.0491,0.0152 c 15.3835,-6.45426 27.89561,-60.01953 32.75071,-73.20926 3.12549,-8.48202 3.72179,-22.80844 11.90565,-28.4699 6.06972,-4.20628 14.43993,-8.65311 15.90696,-16.31013 L 241.49096,82.097726 c 0.002,0.003 -42.33385,22.688164 -42.35587,23.138774 z"
       fill="#d4dfe5"
       id="path14"
       style="stroke-width:1.93887" />
    <path
       d="m 271.97339,119.11574 c -1.00625,0.43368 -2.00404,0.88768 -3.00182,1.34845 1.2756,-0.81483 2.52919,-1.67878 3.7167,-2.66979 1.33829,-1.11637 -1.15363,-2.40891 -2.13278,-2.18022 -1.71267,0.39302 -3.40162,0.84702 -5.08041,1.32304 0.7962,-1.04183 1.48737,-2.17175 2.02437,-3.41856 0.57089,-1.32812 -1.35183,-2.11076 -2.36148,-1.94474 -10.58261,1.80583 -17.86186,9.01055 -27.22647,13.68099 -4.59252,2.28864 -9.36969,4.30284 -14.29085,5.85797 -0.66406,0.17787 -1.31118,0.37099 -1.95999,0.5658 -1.25867,0.31848 -2.5275,0.57258 -3.82513,0.72844 -1.11128,0.33711 -1.96338,-0.0593 -2.55799,-1.18921 0.89276,-0.91478 3.62523,-1.37725 4.73652,-1.65846 4.44683,-1.11298 8.62601,-2.61559 12.80179,-4.4841 3.70146,-1.65507 7.16406,-3.68283 10.37764,-6.10529 6.82186,-2.28017 13.21683,-5.66823 18.21422,-10.91973 1.06555,-1.11467 -1.71605,-2.04131 -2.36656,-1.94475 -5.75632,0.81144 -10.10659,3.76075 -14.48397,7.46391 -1.38741,1.18074 -2.79345,2.27339 -4.22491,3.30674 -2.7545,0.88768 -5.55642,1.64322 -8.3448,2.29881 -1.86343,0.44214 -3.83529,0.73351 -5.8461,0.98592 2.73078,-1.47211 5.43614,-3.01707 8.2025,-4.49426 7.48592,-3.98775 16.01876,-6.48814 22.16471,-12.5189 1.44162,-1.40774 -1.49245,-2.38689 -2.53258,-2.09213 -7.89249,2.21749 -15.18191,5.74616 -22.60346,9.22739 0.0322,-0.0186 0.0627,-0.0339 0.0983,-0.0474 6.53388,-3.25593 12.95426,-6.68634 19.25436,-10.299711 1.57376,-0.89784 -1.11128,-2.16497 -2.28524,-2.13109 0.59121,-0.29646 1.18243,-0.58783 1.77026,-0.88937 1.97016,-1.01472 -0.87751,-2.795153 -2.21749,-2.27 -7.06072,2.74433 -13.9351,5.900311 -20.63161,9.511991 -5.32942,2.86122 -11.99713,8.36682 -18.45647,9.8762 3.68621,-3.52867 9.35105,-5.40396 13.61832,-7.91282 6.44579,-3.79463 12.84584,-7.623141 19.12731,-11.621061 1.14177,-0.723353 -0.10165,-1.673703 -1.28916,-2.027753 1.4196,-0.85888 2.84089,-1.72114 4.25371,-2.59526 1.17397,-0.72674 -0.27782,-1.85496 -1.51785,-2.13617 0.45908,-0.78434 0.59969,-1.52802 0.17618,-2.15312 -0.49635,-0.73012 -1.52632,-1.18921 -2.36826,-1.00964 -1.15024,0.24733 -2.08027,0.96052 -3.04078,1.60425 -4.0301,2.68165 -7.8908,5.24133 -12.27496,7.38767 -5.53101,2.710453 -11.27886,4.977063 -16.87594,7.602814 -1.61272,0.47094 -3.23052,0.95205 -4.8534,1.47042 -0.83515,0.26597 -0.86057,0.75723 -0.50312,1.22309 -0.37608,0.20329 -0.75724,0.39471 -1.12992,0.60138 -0.40318,0.23039 -0.45401,0.81822 -0.21176,1.20446 0.92833,1.5043 2.52072,1.96847 4.35874,1.86682 -1.56867,0.75046 -3.14073,1.48736 -4.72973,2.20733 -1.73638,0.78433 0.21345,2.40213 1.40604,2.40891 1.19938,0.005 2.33099,-0.20159 3.42025,-0.53362 -1.11806,0.96221 -2.13447,2.03792 -2.9493,3.33216 -0.71488,1.13161 1.16549,1.93289 1.96846,1.98371 0.78264,0.0525 1.54326,0.0407 2.29203,-0.0237 -0.46248,0.3405 -0.94019,0.6539 -1.39927,1.00287 -1.50261,1.1367 1.50768,2.67488 2.58339,2.10568 0.11181,-0.0593 0.22023,-0.12027 0.32865,-0.17618 v 0 c 0.002,0 0.002,0 0.005,0 0.37777,-0.19989 0.74876,-0.40995 1.12653,-0.60985 -0.13891,0.12875 -0.2846,0.24225 -0.42181,0.37099 -1.3637,1.3061 1.18243,2.25307 2.18021,2.20394 6.15273,-0.29476 11.44149,-3.96234 16.5761,-6.89471 5.41921,-3.09669 11.28564,-5.88337 17.2571,-8.18387 -4.48241,2.48345 -9.38155,4.37399 -13.908,6.66432 -5.36669,2.72231 -10.41999,5.84102 -15.88832,8.24824 -2.42416,0.54718 -4.73821,1.32982 -6.8117,2.56307 -1.72791,1.0232 1.62119,2.37842 2.5817,2.09891 2.08027,-0.5963 4.07584,-1.32982 6.02398,-2.15312 3.07806,-0.5946 6.35092,-0.75553 9.25619,-1.25866 1.64829,-0.28629 3.27456,-0.63865 4.90083,-0.99609 -2.3547,1.21801 -4.7958,2.31913 -7.3792,3.32199 -3.72518,1.44162 -9.96091,1.57884 -12.89497,4.57219 -1.42129,1.4501 0.69455,3.87595 2.11246,4.44006 0.17618,0.0728 0.35913,0.11858 0.5387,0.17787 -0.53023,0.26089 -1.08079,0.49974 -1.5907,0.79112 -0.97067,0.54717 0.0864,1.76518 0.76571,1.99557 2.5241,0.85548 4.97367,0.92324 7.36395,0.5387 -1.85835,0.74029 -3.70654,1.48228 -5.56997,2.21749 -1.55174,0.60985 -0.28291,1.86512 1.02658,2.2412 -3.36604,2.04808 -5.65637,4.20628 -3.56424,5.58691 2.02945,1.3349 4.92116,0.017 6.82356,-0.68777 1.97863,-0.73352 3.9149,-1.55682 5.85288,-2.38689 -0.24733,0.16601 -0.49636,0.31678 -0.74199,0.4828 -0.44892,0.29984 -0.52515,0.62171 -0.38624,0.91986 -1.14347,0.64542 -2.29202,1.29085 -3.42533,1.95999 -0.66576,0.39302 -0.53362,0.8792 -0.0779,1.28746 -3.43719,1.06894 -6.78629,2.34963 -9.29515,4.911 -1.12992,1.15364 0.7115,2.11754 1.72622,2.21071 4.35197,0.41504 8.71918,-0.33542 13.04404,-1.66354 -0.63865,0.97068 1.10112,1.86683 1.93628,1.92951 2.24798,0.16262 4.42989,-0.10165 6.56268,-0.60139 -0.35236,0.17618 -0.71319,0.34728 -1.06047,0.52854 -1.61102,0.84702 -3.29489,1.54327 -5.01772,2.1582 -5.12444,1.37555 -10.23533,2.83411 -15.09551,4.98384 -2.02437,0.89614 0.86734,2.86122 2.25137,2.25984 3.76244,-1.6483 7.70276,-2.79346 11.60581,-4.02672 0.41165,-0.11519 0.81483,-0.23716 1.22648,-0.35066 -4.89406,2.56815 -9.7356,5.23456 -14.22309,8.54131 -1.62966,1.20445 1.57883,2.40891 2.57662,2.07688 0.77078,-0.26088 1.52463,-0.55225 2.28017,-0.84363 -1.35015,1.20446 -2.59187,2.53088 -3.68961,4.02502 -0.88597,1.21801 1.61272,2.13279 2.41231,1.93628 3.49986,-0.86565 6.81847,-2.09213 10.06085,-3.48462 -2.52411,2.17513 -4.77717,4.61623 -6.46781,7.53674 -0.50483,0.87412 0.29815,1.47042 1.16041,1.75163 -0.78942,0.52515 -1.57376,1.06385 -2.35809,1.61102 -1.60595,1.12653 1.7025,2.66641 2.8951,1.88715 1.52293,-0.9927 3.02892,-2.00065 4.50781,-3.03231 2.57663,-1.60425 5.27352,-2.90696 8.26857,-3.39484 -1.3891,2.16667 -4.24693,3.43719 -6.40174,4.39601 -2.01251,0.89106 0.85887,2.85444 2.23612,2.24121 3.41008,-1.51277 7.79932,-3.57949 8.52098,-7.71632 0.17618,-1.0503 -1.29085,-1.63135 -2.05825,-1.64829 -0.9944,-0.0254 -1.95322,0.0457 -2.89171,0.16432 1.77026,-1.54496 3.47276,-3.17462 5.07701,-4.94149 1.06724,-1.18243 -1.96677,-2.2717 -2.78499,-1.82447 -3.49309,1.91764 -6.36617,5.3921 -9.74068,7.70954 5.23286,-5.83425 12.85431,-9.5933 18.96977,-14.08588 1.51785,-1.12314 -1.49753,-2.57492 -2.54614,-2.0701 -7.33007,3.52358 -14.35691,7.75019 -22.01732,10.58092 5.74785,-5.13461 13.56919,-7.97042 19.83711,-12.15637 1.31287,-0.87582 -0.49974,-1.9295 -1.77704,-2.10738 0.56411,-0.30831 1.12992,-0.61662 1.69064,-0.93341 0.002,0 0.002,0 0.003,0 v -0.003 c 0.10842,-0.0576 0.21683,-0.11689 0.32356,-0.17787 0.90461,-0.5116 0.38963,-1.15364 -0.43198,-1.59239 3.82174,-1.79737 7.63331,-3.88441 10.34037,-6.65754 1.40774,-1.44501 -1.4772,-2.38689 -2.54105,-2.07519 -5.5903,1.65168 -11.21449,5.1922 -17.11649,6.42207 5.84779,-4.07923 12.80857,-7.00482 19.19846,-9.63565 2.05655,-0.8521 -0.88259,-2.69351 -2.22088,-2.25476 -5.68856,1.89224 -11.17044,4.44345 -16.73025,6.74056 -4.78395,1.97185 -10.14556,4.40787 -15.52411,5.13461 5.09904,-3.07637 12.17501,-4.2876 17.30623,-6.48645 8.62431,-3.69977 17.19272,-7.39953 25.27664,-12.07675 1.32812,-0.7674 -0.53362,-1.9295 -1.65168,-2.14634 3.51173,-1.91595 7.01837,-3.83698 10.54365,-5.72752 2.01759,-1.08926 -0.92155,-2.60881 -2.20901,-2.25137 -0.59969,0.16602 -1.17227,0.36083 -1.76688,0.53023 2.94084,-1.5026 5.90201,-2.95778 8.92924,-4.28251 1.97524,-0.87242 -0.8521,-2.83411 -2.20224,-2.25984 z m -43.55524,-7.3775 c -3.32369,1.78042 -6.62705,3.99114 -10.11337,5.56997 3.2068,-2.11076 6.68295,-3.87933 10.11337,-5.56997 z m -5.16341,22.70849 c -1.20107,0.44553 -2.42247,0.79111 -3.63709,0.97237 0.62002,-0.2253 1.25359,-0.43197 1.89732,-0.62848 0.57936,-0.0915 1.15702,-0.20837 1.73977,-0.34389 z m 21.01785,-9.54587 c 5.94774,-3.70315 11.70067,-7.78746 18.25149,-9.87112 -1.13669,1.589 -2.54782,2.96456 -4.13682,4.16901 -4.7687,1.68218 -9.44762,3.61845 -14.11467,5.70211 z m -25.16484,19.29841 c 1.40435,-0.81822 2.89341,-1.51785 4.33164,-2.21918 3.74042,-1.82448 7.6062,-3.37621 11.42793,-4.98893 7.07089,-2.98319 13.77587,-6.69311 20.5774,-10.16757 1.28239,-0.48619 2.54952,-0.98762 3.81327,-1.50261 -5.9037,3.13565 -11.75489,6.43563 -17.81443,9.31717 -7.27248,3.45922 -14.80584,6.53727 -22.33581,9.56112 z m 29.08991,-8.90891 c -0.53023,0.27951 -1.06216,0.56072 -1.59239,0.83854 -0.0305,0.0119 -0.0627,0.0237 -0.0949,0.0339 0.15416,-0.0898 0.30662,-0.17787 0.46078,-0.27104 0.40826,-0.1982 0.81652,-0.40488 1.22648,-0.60138 z"
       fill="#dfeef6"
       id="path16"
       style="stroke-width:1.93887" />
    <path
       d="m 323.09757,162.26103 c -0.96899,-0.9639 -2.39536,-2.36825 -4.23847,-4.13005 -3.63031,-3.58965 -8.81405,-8.72087 -14.94644,-14.98879 -3.05942,-3.15598 -6.42207,-6.53218 -9.89314,-10.20823 -3.54392,-3.60151 -7.20472,-7.49948 -11.03831,-11.494 -3.82005,-4.02502 -7.77222,-8.19065 -11.80063,-12.43589 -4.03687,-4.24185 -8.13135,-8.58366 -12.20041,-12.964421 -4.52815,-4.827993 -9.02919,-9.679703 -13.47602,-14.453483 3.01199,-1.66184 6.00026,-3.31014 8.92585,-4.92285 2.49361,-1.35015 4.9398,-2.68504 7.33516,-3.99114 2.4123,-1.29255 4.77716,-2.55968 7.07427,-3.79124 4.61116,-2.53428 8.9411,-5.03975 12.81874,-7.55708 3.89627,-2.50547 7.35548,-5.00078 10.23195,-7.45882 2.89171,-2.44618 5.18882,-4.87712 6.83372,-7.06919 1.64999,-2.20394 2.62067,-4.163933 3.14582,-5.556427 0.27612,-0.691164 0.4252,-1.238337 0.52007,-1.612717 0.0999,-0.372687 0.15415,-0.562419 0.15415,-0.562419 0,0 -0.0661,0.186344 -0.18804,0.547172 -0.12705,0.364217 -0.30662,0.906307 -0.63187,1.561897 -0.60138,1.331509 -1.69911,3.188167 -3.45752,5.224394 -1.76857,2.02775 -4.16901,4.24355 -7.16575,6.44409 -2.98827,2.21072 -6.54404,4.43159 -10.55043,6.61859 -4.01485,2.17005 -8.47016,4.30114 -13.24055,6.44748 -2.36317,1.11467 -4.83985,2.18191 -7.31313,3.44058 -2.4411,1.25358 -4.94657,2.53935 -7.47915,3.83698 -3.26779,1.69911 -6.60503,3.45582 -9.9643,5.23286 -2.6088,-2.79176 -5.19728,-5.55812 -7.74341,-8.24485 -1.96847,-2.05825 -3.91152,-4.086 -5.81053,-6.07141 -1.9312,-2.00065 -3.9166,-3.82173 -5.78173,-5.64451 -3.80649,-3.59135 -7.31991,-7.06242 -10.40135,-10.42846 -3.07128,-3.3762 -5.71058,-6.640602 -7.80441,-9.706799 -2.11584,-3.061115 -3.65233,-5.939274 -4.65858,-8.432888 -0.99948,-2.503779 -1.42468,-4.616236 -1.56698,-6.071409 -0.083,-0.723352 -0.0813,-1.297628 -0.0779,-1.680479 0.002,-0.382852 0.002,-0.581053 0.002,-0.581053 0,0 -0.0169,0.198201 -0.044,0.581053 -0.0288,0.384545 -0.0694,0.952045 -0.0356,1.694031 0.0406,1.485666 0.32017,3.657414 1.1621,6.281469 0.83347,2.610502 2.20733,5.656371 4.13852,8.915687 1.91595,3.267787 4.36552,6.755798 7.22843,10.394578 2.84428,3.64894 6.11038,7.4351 9.64074,11.33815 1.77026,1.91934 3.58796,3.8895 5.44123,5.89862 1.83633,2.01759 3.7167,4.08092 5.62757,6.17305 2.2429,2.49361 4.54,5.04144 6.85574,7.61128 -5.77664,3.06451 -11.6363,6.18152 -17.5112,9.26805 -5.27691,2.80532 -10.56398,5.575063 -15.77143,8.258403 -1.80415,0.9385 -12.12927,6.286551 -15.21918,7.889111 -4.92963,2.51902 -9.66445,5.00417 -14.1926,7.24876 -4.48071,2.33607 -8.76492,4.42142 -12.6849,6.40344 -7.84845,3.9149 -14.42638,7.07258 -19.02906,9.27482 -2.31744,1.06046 -4.12835,1.92611 -5.35992,2.51733 -1.22817,0.58444 -1.89054,0.90461 -1.89054,0.90461 0,0 0.70303,-0.22869 2.01252,-0.64203 1.30609,-0.42012 3.22713,-1.03336 5.65975,-1.84989 2.43771,-0.80805 5.34637,-1.9295 8.70563,-3.15767 3.35927,-1.25189 7.08614,-2.80701 11.18738,-4.45022 4.05552,-1.74994 8.47355,-3.61168 13.0864,-5.71566 4.62809,-2.10738 9.47811,-4.39771 14.48736,-6.79646 2.12431,-1.05538 4.29606,-2.13448 6.47458,-3.21696 0.0322,1.21631 0.17788,2.43093 0.45231,3.61506 0.6539,2.94423 1.91426,5.7055 3.36943,8.29906 1.42807,2.59695 3.20511,5.03974 4.72126,7.47407 1.42807,2.46481 2.18869,5.29384 2.51056,8.12965 0.63526,5.72414 -0.31001,11.46013 -0.41673,17.30792 0.002,0.16094 -0.002,0.31509 0,0.46925 -0.40996,0.2846 -0.77587,0.57428 -1.06724,0.86904 -0.53701,0.52684 -0.85041,1.06046 -0.94866,1.45348 -0.10503,0.3964 -0.0847,0.60815 -0.0847,0.60815 0,0 0.0339,-0.22361 0.21683,-0.54547 0.17788,-0.32695 0.55565,-0.73521 1.1367,-1.09604 0.21514,-0.13214 0.4811,-0.25411 0.74537,-0.37777 0.0119,2.45804 -0.022,4.86695 -0.11858,7.31991 l -0.30662,8.69546 c -0.42689,11.59395 -0.74876,23.23026 -0.26935,34.89027 0.25411,5.83086 0.74199,11.66849 1.7313,17.46039 0.49805,2.8934 1.14686,5.77495 2.07519,8.60059 0.94696,2.79346 2.1582,5.59878 4.19612,7.90774 l 0.12197,0.144 0.18803,0.0508 0.0542,0.0119 0.21853,0.0576 0.18635,-0.083 c 2.82225,-1.24172 4.93471,-3.45582 6.7541,-5.74954 1.8177,-2.31913 3.34571,-4.82968 4.74668,-7.39614 2.78498,-5.14647 5.0516,-10.54026 7.13695,-15.98827 3.24238,-8.51759 5.98163,-17.20458 8.60229,-25.91021 l 0.14908,-0.0457 c 0,0 -0.0169,-0.11858 -0.0474,-0.29307 0.69795,-2.32421 1.3908,-4.64842 2.08197,-6.97263 0.83177,-2.77991 1.65846,-5.56151 2.53766,-8.31431 0.43028,-1.38233 0.92494,-2.71722 1.39757,-4.10633 0.4557,-1.40266 0.83177,-2.81379 1.18752,-4.22661 0.11519,-0.47263 0.22361,-0.94865 0.33542,-1.42129 0.3117,0.23039 0.60307,0.45061 0.86395,0.64204 1.17058,0.85887 1.84819,1.34845 1.84819,1.34845 0,0 -0.62679,-0.55226 -1.72113,-1.51277 -0.27613,-0.24225 -0.58106,-0.51499 -0.91139,-0.81314 0.53362,-2.24459 1.0486,-4.48918 1.64321,-6.69651 0.75045,-2.77651 1.63474,-5.51915 2.88832,-8.04326 1.25189,-2.50547 2.93406,-4.79749 5.16849,-6.35431 2.29711,-1.589 4.6823,-3.07466 6.96586,-4.74159 2.27678,-1.65507 4.4841,-3.48462 6.27469,-5.76479 0.83177,-1.05708 1.53988,-2.25137 2.07519,-3.53036 0.83855,0.85548 1.69572,1.72791 2.52411,2.57323 3.95217,3.90813 7.77899,7.65872 11.4652,11.15859 3.66927,3.50156 7.23521,6.70836 10.49453,9.68816 3.33555,2.89849 6.35092,5.58861 9.1105,7.86708 2.77482,2.26154 5.15324,4.26896 7.19455,5.83255 2.03114,1.56698 3.64217,2.77991 4.74837,3.59982 1.09265,0.81991 1.68387,1.26205 1.68387,1.26205 0,0 -0.52007,-0.51329 -1.49244,-1.47211 z m -72.12509,-3.90474 c -0.34727,1.40266 -0.72335,2.79854 -1.1638,4.15207 -0.45908,1.35184 -0.97745,2.72231 -1.40943,4.1148 -0.89953,2.76636 -1.7313,5.54796 -2.57493,8.32447 -0.53531,1.78721 -1.08079,3.56594 -1.6178,5.34976 -0.16432,-0.43029 -0.36083,-0.88259 -0.6234,-1.38742 -0.38455,-0.70471 -0.87921,-1.48566 -1.52633,-2.24798 -0.60815,-0.80297 -1.39418,-1.54665 -2.25306,-2.32251 -0.88767,-0.71827 -1.86004,-1.46195 -2.92898,-2.08197 -1.07571,-0.6251 -2.23104,-1.1909 -3.44566,-1.62796 -1.21123,-0.45739 -2.47498,-0.7962 -3.7472,-1.02658 -2.5529,-0.48619 -5.14308,-0.55056 -7.52997,-0.3134 -1.19768,0.11011 -2.34284,0.31001 -3.40669,0.57766 -1.06724,0.27613 -2.06503,0.55056 -2.94592,0.94188 -0.88937,0.35406 -1.68048,0.74368 -2.34624,1.15025 -0.66745,0.39471 -1.22309,0.77926 -1.6449,1.15025 -0.44045,0.33881 -0.74199,0.65898 -0.94697,0.87581 -0.1982,0.21684 -0.3117,0.33203 -0.3117,0.33203 l 0.0711,0.0966 c 0,0 0.14399,-0.0508 0.42182,-0.15076 0.26765,-0.10842 0.66236,-0.25242 1.16718,-0.40827 0.25072,-0.0864 0.52854,-0.16771 0.83855,-0.24055 0.30492,-0.0796 0.6234,-0.18465 0.98762,-0.25241 0.70641,-0.14907 1.49244,-0.3134 2.37503,-0.42351 0.86735,-0.11519 1.8177,-0.21175 2.82056,-0.26935 1.00965,-0.0356 2.06164,-0.0661 3.1509,-0.0356 1.08757,0.0102 2.22088,0.0966 3.35588,0.1982 1.13161,0.12027 2.28525,0.26427 3.42364,0.46586 1.135,0.21345 2.26661,0.41842 3.36943,0.7081 1.10112,0.26258 2.17682,0.57597 3.19833,0.94358 2.04977,0.70302 3.86239,1.70928 5.20237,2.86122 1.34336,1.14686 2.20393,2.42416 2.70537,3.32877 0.083,0.12874 0.13721,0.24563 0.20159,0.37099 -2.71893,8.93771 -5.54796,17.84662 -8.89367,26.54378 -2.08705,5.40904 -4.37399,10.76049 -7.1234,15.81717 -1.38741,2.5258 -2.89341,4.98215 -4.66028,7.2115 -1.66185,2.08874 -3.59135,4.02162 -5.89184,5.13799 -1.6483,-2.0142 -2.75619,-4.51629 -3.60998,-7.0675 -0.8826,-2.72908 -1.51277,-5.55134 -1.99049,-8.39731 -0.97068,-5.70211 -1.3925,-11.494 -1.68048,-17.27573 -0.53193,-11.59057 -0.27274,-23.19299 0.0915,-34.78525 l 0.26257,-8.70224 c 0.0779,-2.58678 0.0559,-5.23964 0.0271,-7.81965 1.02488,-0.35913 2.24459,-0.67253 3.65233,-0.908 2.36317,-0.41165 5.16679,-0.7081 8.17709,-0.81482 1.50599,-0.0593 3.05772,-0.0932 4.63148,-0.0932 1.55173,-0.0203 3.13396,-0.039 4.70602,-0.0559 0.77586,-0.007 1.55004,0 2.26831,0.0491 0.80636,0.0627 1.63813,0.0898 2.36317,0.16262 1.49075,0.0999 3.02046,0.3693 4.47224,0.67423 1.42807,0.38285 2.82395,0.82499 4.08262,1.40605 1.25697,0.58274 2.43263,1.19598 3.47615,1.85157 1.22648,0.75046 2.27847,1.48228 3.19156,2.14464 -0.13552,0.58445 -0.27274,1.17905 -0.41843,1.76688 z m 23.56229,-33.71292 c -1.69912,2.17175 -3.84715,3.95556 -6.09344,5.58691 -2.25306,1.63983 -4.63148,3.11363 -6.95061,4.72296 -2.40383,1.67032 -4.18595,4.10125 -5.48019,6.70498 -1.30271,2.61897 -2.20224,5.41243 -2.96286,8.22452 -0.55903,2.0718 -1.0486,4.15716 -1.53987,6.24082 -0.81145,-0.73521 -1.74147,-1.55004 -2.83242,-2.41569 -1.97016,-1.59239 -4.48241,-3.23052 -7.41647,-4.58236 -1.47889,-0.66406 -3.01538,-1.30102 -4.69755,-1.72791 -0.86057,-0.26596 -1.63474,-0.41165 -2.4428,-0.56919 -0.88767,-0.17618 -1.75671,-0.24733 -2.60711,-0.30154 -1.70928,-0.0983 -3.37959,-0.0407 -5.01095,0.12874 -1.63135,0.18465 -3.22035,0.43537 -4.74498,0.73183 -3.05434,0.60646 -5.87998,1.32642 -8.21775,2.20224 -1.18582,0.44722 -2.25644,0.92663 -3.16275,1.42807 0.10503,-5.65638 1.01303,-11.36018 0.35744,-17.19442 -0.34728,-2.93746 -1.13839,-5.90709 -2.67657,-8.54639 -1.60086,-2.54952 -3.30675,-4.87373 -4.72804,-7.44527 -1.43315,-2.53427 -2.65116,-5.20576 -3.27795,-8.00938 -0.30154,-1.29255 -0.44045,-2.60034 -0.4355,-3.90644 2.62757,-1.31118 5.27873,-2.64608 7.95022,-4.01655 5.221,-2.695201 10.51316,-5.468331 15.79345,-8.282124 5.3091,-2.79684 10.57754,-5.69025 15.78668,-8.52267 0.84194,-0.46586 1.67032,-0.92155 2.50886,-1.38572 0.63357,0.70303 1.25528,1.3925 1.89054,2.09891 2.09383,2.29541 4.19951,4.61115 6.31705,6.92859 l 0.22361,0.29645 c 0.63865,0.83177 1.30779,1.636443 1.9583,2.454653 0.66067,0.81144 1.29763,1.63983 1.97355,2.43771 l 2.05147,2.359791 c 0.67592,0.80467 1.37725,1.57037 2.1006,2.32252 l 2.14464,2.27 2.23782,2.18361 c 0.72843,0.73859 1.5314,1.39927 2.2988,2.10229 0.52684,0.48788 1.08926,0.9368 1.64321,1.38911 0.46077,0.48788 0.92833,0.98423 1.38741,1.46703 2.93914,3.06958 5.85627,6.04599 8.73612,8.97836 -0.50143,1.31457 -1.21631,2.54444 -2.08196,3.64556 z"
       fill="#293644"
       id="path18"
       style="stroke-width:1.93887" />
    <path
       d="m 243.14267,180.94451 c -0.24733,-0.83516 -1.94983,-0.9961 -2.55121,-0.60647 -1.48398,0.93172 -2.83751,1.99557 -4.0877,3.15768 -0.0864,0.0118 -0.1711,0.0271 -0.21345,0.0474 -6.96077,3.19494 -12.8289,8.73612 -19.08326,13.34897 -1.14009,0.84024 -2.31913,1.57375 -3.53714,2.2683 3.41686,-1.94644 6.54404,-5.21253 9.67122,-7.73664 4.51629,-3.65063 9.02242,-7.28941 13.43367,-11.0688 0.80636,-0.69794 -2.01759,-1.19598 -2.497,-0.98423 -5.32942,2.30896 -10.48267,5.24133 -15.81717,7.63331 4.52137,-3.98945 5.04313,-5.50561 6.00365,-7.61298 1.8448,-0.33034 3.54899,-0.73182 4.75006,-1.38064 -0.45908,-0.17787 -2.03453,-0.60138 -3.50325,-1.00795 0.50482,-0.99948 -2.0176,-1.20106 -2.52242,-0.92663 -3.43888,1.85496 -7.21488,2.52072 -10.65546,4.38246 -1.06724,0.57427 1.57715,1.54157 2.33607,1.12992 1.15025,-0.62002 2.75958,-1.00965 4.50274,-1.33151 -3.22544,2.84428 -6.98619,5.43445 -7.87555,9.69664 -0.1982,0.95373 1.87359,1.06046 2.34962,0.91308 4.8805,-1.55851 9.5086,-3.8878 14.12822,-6.22218 -6.05616,4.97876 -11.74472,9.41543 -17.73481,14.55681 -0.28291,0.24225 0,0.64204 0.14907,0.7674 2.62067,2.08196 5.40057,0.54378 7.89757,-1.06893 4.49766,-2.90019 8.53962,-6.54066 12.84923,-9.69156 -5.04652,5.30232 -10.44031,10.20993 -15.76296,15.23951 -0.81144,0.77078 2.03453,1.19937 2.50547,0.97915 2.86122,-1.31288 5.54626,-2.89849 8.13305,-4.66367 -3.52528,4.21306 -7.26401,8.19911 -11.3534,11.87685 -0.79789,0.71319 1.88546,1.1926 2.25984,1.07063 2.93914,-0.94188 5.77834,-2.11584 8.56841,-3.42872 -3.8319,3.78616 -7.61129,7.63839 -11.13318,11.80232 -0.65728,0.77587 2.03792,1.51785 2.68504,0.82669 2.89341,-3.0933 5.79528,-6.15273 8.75476,-9.13422 -1.65846,3.11702 -3.34741,6.23573 -4.98554,9.39679 -1.80075,1.82617 -3.46429,3.76922 -4.79411,6.1019 -0.35574,0.62171 0.43029,0.98424 1.25528,1.07063 -0.13552,0.29137 -0.27274,0.57597 -0.40657,0.86734 -0.42012,0.92495 2.28525,1.09943 2.76805,0.64035 3.86917,-3.67097 5.01433,-6.12731 6.97602,-10.95022 0.003,-0.007 -0.002,-0.0136 0.002,-0.0169 4.31131,-5.87829 7.46729,-12.30883 10.57245,-19.16119 0.3388,-0.75385 -1.09096,-1.04014 -1.97863,-0.82499 1.27222,-2.94762 2.40891,-5.97485 3.35757,-9.10712 0.81483,0.44384 1.95661,0.37099 1.97016,-0.27782 0.0593,-3.56593 3.67774,-6.97941 2.61389,-10.57075 z m -3.34233,4.44852 c -0.31339,-0.23547 -0.84024,-0.35405 -1.32642,-0.37777 0.62001,-0.60985 1.27052,-1.19598 1.95152,-1.75332 -0.12197,0.7098 -0.35405,1.42299 -0.6251,2.13109 z m -12.01746,10.67579 c -0.0728,0.15416 -0.14907,0.29645 -0.22361,0.44892 -0.0542,0.11858 -0.061,0.23208 -0.0406,0.3388 -0.83008,0.63696 -1.66693,1.26036 -2.51395,1.86683 0.92833,-0.8809 1.85836,-1.7618 2.77821,-2.65455 z m 6.75919,-1.9312 c 0.41165,-0.56919 -0.3981,-0.92833 -1.2485,-1.02658 0.91308,-1.18921 1.87529,-2.33268 2.89171,-3.42194 -1.57206,5.6191 -3.77091,10.88754 -6.25945,16.01029 -3.01368,1.63304 -6.05616,3.17461 -9.17995,4.5129 5.02958,-4.92794 9.58822,-10.29124 13.79619,-16.07467 z"
       fill="#ffffff"
       id="path20"
       style="stroke-width:1.93887" />
    <path
       d="m 279.07308,100.21374 c 0.67761,-0.276131 1.38233,-0.470941 2.08196,-0.623401 1.40774,-0.32187 2.82226,-0.47094 4.22661,-0.598 1.41113,-0.11519 2.8087,-0.14907 4.20458,-0.18634 l 4.16224,0.0237 c 1.38233,0.0288 2.75958,0.0915 4.09447,0.0898 l 4.11311,-0.0932 c 2.80362,-0.0525 5.60386,-0.039 8.38376,-0.0186 5.58523,0.0423 11.13149,0.11688 16.64386,-0.1711 1.38403,-0.0813 2.75111,-0.17957 4.12666,-0.28968 l 2.01929,-0.20498 2.09721,-0.26596 8.38038,-1.19599 c 5.61402,-0.80636 11.20432,-1.68387 16.78276,-2.664713 5.58862,-0.98762 11.13996,-2.15989 16.60659,-3.63709 5.47003,-1.49074 10.87569,-3.2356 15.95778,-5.58352 4.01147,-1.85666 7.83151,-4.12158 11.04,-6.93198 -0.47263,-0.0559 -0.94696,-0.12197 -1.42467,-0.16263 -0.81992,-0.0559 -1.64152,-0.13383 -2.47668,-0.16601 -0.82838,-0.0322 -1.66354,-0.0474 -2.50378,-0.039 -0.83854,0.0203 -1.68217,0.0237 -2.52411,0.0627 -0.84701,0.0339 -1.69064,0.0864 -2.54104,0.15077 -1.69742,0.13044 -3.40331,0.31001 -5.1092,0.53701 -1.7042,0.23039 -3.405,0.49635 -5.1092,0.80128 -1.69064,0.32186 -3.39145,0.64034 -5.07362,1.01642 -1.68048,0.38454 -3.36943,0.75215 -5.04822,1.14855 l -5.02619,1.17905 c 2.93237,-0.7962 5.86304,-1.57715 8.78355,-2.44449 0.79112,-0.227 1.58223,-0.46586 2.37165,-0.69455 l 3.77938,-1.1655 c 1.65338,-0.51329 3.32539,-1.0215 5.01433,-1.47719 0.63696,-0.17449 1.2773,-0.33542 1.91765,-0.49805 1.51446,-0.43198 3.02723,-0.85718 4.5417,-1.29763 2.96116,-0.86734 5.93588,-1.61949 8.92246,-2.33945 l 4.50613,-1.09435 c 1.46703,-0.35744 2.94083,-0.70133 4.39092,-1.12145 2.92051,-0.80466 5.80545,-1.74485 8.6582,-2.80193 2.84936,-1.0486 5.67162,-2.19885 8.46677,-3.4338 2.80362,-1.21631 5.5903,-2.47498 8.36343,-3.81496 l 8.34311,-4.02502 c 2.79854,-1.35353 5.54456,-2.75449 8.43458,-4.07922 5.72413,-2.65794 11.52788,-5.01095 17.17409,-7.53675 2.82395,-1.27391 5.60047,-2.610501 8.29398,-4.065674 1.34506,-0.72674 2.67657,-1.499218 3.96403,-2.281861 0.63696,-0.404873 1.27561,-0.779254 1.90918,-1.209538 l 1.91933,-1.292546 c 2.60204,-1.81092 5.21593,-3.545608 7.70954,-5.336199 1.68387,-1.212927 3.24577,-2.513943 4.74498,-3.86578 -4.37907,-0.869038 -8.82929,-1.499218 -13.30492,-1.927808 -5.45817,-0.498045 -10.95361,-0.779254 -16.45413,-0.821605 -5.48527,-0.03558 -10.98918,0.1135 -16.44566,0.376075 -5.48527,0.286291 -10.93836,0.670836 -16.36942,1.170576 -2.71554,0.216836 -5.41413,0.560724 -8.1178,0.833463 -2.69521,0.301538 -5.38024,0.684389 -8.06529,1.019807 l -8.00429,1.228173 c -2.64608,0.492963 -5.31926,0.919859 -7.93823,1.456867 l -3.91152,0.808053 c -1.30271,0.259187 -2.61389,0.543784 -3.93524,0.869038 l -3.95217,0.933411 -1.92442,0.465859 -1.95492,0.494657 c -5.20745,1.324733 -10.40135,2.671488 -15.56645,4.062288 -10.29971,2.781599 -20.49439,5.785117 -30.49596,9.207064 -4.97875,1.69911 -9.93549,3.4609 -14.84141,5.31587 -2.44279,0.93341 -4.88897,1.87529 -7.29619,2.87477 -2.43941,0.9368 -4.8246,1.97185 -7.21996,2.97811 -2.37842,1.05707 -4.7128,2.02098 -7.10816,3.1492 -2.38689,1.11976 -4.72804,2.23443 -7.14712,3.33047 l -7.14373,3.24745 c -2.36825,1.06047 -4.72296,2.14295 -7.04886,3.2661 -4.65012,2.23104 -9.24094,4.56541 -13.58613,7.25384 -2.1582,1.362 -4.2859,2.77313 -6.22557,4.40787 -1.94814,1.63135 -3.73534,3.41347 -5.05838,5.63096 l -0.10503,-0.0474 c -0.007,0.0203 -0.50482,1.56359 -0.4523,2.79854 0.0508,1.24342 2.47667,2.22087 4.5976,3.41855 2.11754,1.195993 12.79163,8.541314 12.79163,8.541314 l -0.0203,-0.70133 v 0 h 0.0339 c 0.0322,-0.22192 0.13891,-0.39979 0.27274,-0.56242 l -0.15416,-0.1406 c 0.4828,-0.58952 1.17227,-0.96899 1.85836,-1.23834 z"
       fill="#e1eef4"
       opacity="0.5"
       id="path22"
       style="stroke-width:1.93887" />
    <path
       d="m 453.15175,20.15381 c 5.56998,-0.133829 11.11454,-0.149075 16.6896,0.01694 5.58353,0.181261 11.18061,0.474329 16.75905,1.063852 5.59369,0.601381 11.16706,1.485665 16.65233,2.79854 v 0 l 2.66302,0.645426 -1.86682,1.943054 c -2.22596,2.319129 -4.74499,4.367213 -7.28773,6.274693 -2.52919,1.919337 -5.10581,3.684518 -7.53166,5.564893 v 0 l -1.9024,1.411128 c -0.64204,0.465859 -1.33659,0.924941 -1.99557,1.384024 -1.34506,0.89953 -2.6969,1.75671 -4.07245,2.576622 -2.74433,1.643214 -5.56997,3.152594 -8.40748,4.578964 -5.65806,2.87477 -11.42116,5.36839 -17.01654,7.98228 v 0 l -8.41765,3.99283 c -2.81887,1.32643 -5.63943,2.67827 -8.5142,3.9183 -2.87308,1.25527 -5.77326,2.47159 -8.69885,3.6032 -2.93914,1.11806 -5.91895,2.15481 -8.92585,3.07806 -2.99844,0.9368 -6.04261,1.75162 -9.1122,2.42585 -1.52971,0.35744 -3.07128,0.63187 -4.60946,0.92155 v 0 l -1.37386,0.24394 c 0.72674,0.0881 1.4484,0.18296 2.17514,0.3134 v 0 l 3.08144,0.54209 -2.10398,2.37334 c -4.05043,4.57727 -9.26127,7.89927 -14.6178,10.49452 -5.38533,2.57154 -10.98071,4.53662 -16.63539,6.090043 -5.64451,1.54496 -11.33138,2.76975 -17.00808,3.79972 -5.6767,1.05707 -11.35001,1.838021 -16.99452,2.595251 v 0 l -8.4583,1.10959 -2.11246,0.24394 -2.19546,0.20159 c -1.43315,0.10503 -2.8663,0.18974 -4.29437,0.227 -5.71566,0.17788 -11.33985,-0.0339 -16.89458,-0.20158 -2.77482,-0.0898 -5.53948,-0.16263 -8.2855,-0.17618 -1.38742,-0.0203 -2.70199,0.0457 -4.20628,-0.0203 -1.43146,-0.0695 -2.8104,-0.17449 -4.18934,-0.29138 v 0 l -4.0894,-0.38793 c -1.35014,-0.14569 -2.70198,-0.26088 -4.05551,-0.36591 -1.34845,-0.11689 -2.69351,-0.17787 -4.03349,-0.18804 -1.31626,0.0542 -2.71553,0.0186 -3.83698,0.70811 v 0 l -0.0525,-0.0474 -0.15416,-0.1406 c 0.47941,-0.58952 1.16888,-0.97068 1.85496,-1.23834 0.67762,-0.276121 1.38233,-0.470941 2.08197,-0.623401 1.40774,-0.32356 2.82225,-0.47264 4.22661,-0.59799 1.41113,-0.1152 2.8087,-0.14908 4.20458,-0.18635 v 0 l 4.16224,0.0237 c 1.38233,0.0288 2.75958,0.0915 4.09447,0.0898 v 0 l 4.11311,-0.0932 c 2.80362,-0.0542 5.60216,-0.0407 8.38376,-0.0186 5.58522,0.0423 11.13148,0.11689 16.64386,-0.1711 1.38572,-0.0813 2.75111,-0.18126 4.12666,-0.28968 v 0 l 2.01929,-0.20498 2.09721,-0.26596 8.38037,-1.19599 c 5.61402,-0.80466 11.20433,-1.68386 16.78277,-2.664713 5.58861,-0.98931 11.13995,-2.15989 16.60659,-3.63708 5.47173,-1.49075 10.87569,-3.2356 15.95778,-5.58353 4.01316,-1.85497 7.83151,-4.12158 11.04,-6.93198 -0.47263,-0.0559 -0.94696,-0.12197 -1.42468,-0.16262 -0.81991,-0.0559 -1.64151,-0.13214 -2.47667,-0.16602 -0.83008,-0.0322 -1.66524,-0.0474 -2.50378,-0.039 -0.83855,0.0203 -1.68217,0.0237 -2.52411,0.0627 -0.84701,0.0339 -1.69064,0.0864 -2.54104,0.15077 -1.69742,0.13044 -3.40331,0.31 -5.1092,0.537 -1.7042,0.23039 -3.40501,0.49635 -5.1092,0.80128 -1.69065,0.32187 -3.39145,0.64034 -5.07363,1.01642 -1.68047,0.38285 -3.36942,0.75215 -5.04821,1.14855 v 0 l -5.02619,1.17905 v 0 l 2.28072,-0.5571 c 2.27749,-0.57356 4.54665,-1.19072 6.81962,-1.7993 -0.0915,0.022 -0.18465,0.044 -0.27783,0.0678 v 0 l -8.82251,2.28864 v 0 l 2.93224,-0.79488 c 1.95353,-0.53155 3.90431,-1.07138 5.85131,-1.64961 0.78942,-0.227 1.58053,-0.46586 2.37164,-0.69455 v 0 l 3.77939,-1.1655 c 1.65337,-0.51329 3.32538,-1.0215 5.01433,-1.47719 0.63696,-0.17279 1.2773,-0.33542 1.91765,-0.49805 1.51446,-0.43197 3.02723,-0.85718 4.5417,-1.29762 2.96116,-0.86735 5.93588,-1.6195 8.92246,-2.33946 v 0 l 4.50612,-1.09435 c 1.46703,-0.35744 2.94254,-0.69963 4.39093,-1.12145 2.91882,-0.80466 5.80375,-1.74485 8.6582,-2.80192 2.84936,-1.04691 5.67161,-2.19886 8.46677,-3.43381 2.80531,-1.21631 5.5903,-2.47498 8.36343,-3.81495 v 0 l 8.3431,-4.02502 c 2.80024,-1.35523 5.54626,-2.7545 8.43459,-4.07923 5.72413,-2.65794 11.52788,-5.01095 17.17409,-7.53675 2.82395,-1.273908 5.60047,-2.610499 8.29398,-4.065672 1.34506,-0.72674 2.67657,-1.499218 3.96403,-2.281861 v 0 l 1.27416,-0.794688 v 0 l 0.63501,-0.41485 1.91934,-1.292546 c 2.60203,-1.81092 5.21593,-3.545608 7.70954,-5.336199 1.68387,-1.212927 3.24576,-2.513943 4.74498,-3.86578 -4.37907,-0.869038 -8.82929,-1.500912 -13.30492,-1.927808 -5.45817,-0.499739 -10.95361,-0.780948 -16.45413,-0.821605 -5.48527,-0.03558 -10.98918,0.1135 -16.44566,0.376075 -5.48527,0.286291 -10.93836,0.670836 -16.36942,1.170576 -2.71554,0.216836 -5.41413,0.55903 -8.1178,0.833463 -2.69521,0.301538 -5.38025,0.684389 -8.06529,1.019807 v 0 l -8.0043,1.228173 c -2.64777,0.491269 -5.31925,0.919859 -7.93823,1.456867 v 0 l -3.91151,0.808053 c -1.30102,0.259187 -2.6139,0.543784 -3.93524,0.869038 v 0 l -3.95218,0.933411 -1.92442,0.465859 -1.95491,0.494657 c -5.20745,1.324733 -10.39966,2.671488 -15.56645,4.062288 -10.29971,2.781599 -20.4944,5.783423 -30.49596,9.207062 -4.98045,1.69911 -9.93549,3.46091 -14.84141,5.31587 -2.44449,0.93341 -4.88897,1.87529 -7.29619,2.87477 -2.4411,0.9368 -4.8246,1.97185 -7.21996,2.97811 -2.37842,1.05707 -4.7128,2.02098 -7.10816,3.1492 -2.38689,1.11976 -4.72804,2.23443 -7.14712,3.33047 v 0 l -7.14373,3.24746 c -2.36825,1.06046 -4.72296,2.14295 -7.04886,3.26609 -4.65181,2.23104 -9.24264,4.56541 -13.58614,7.25384 -2.15989,1.362 -4.2859,2.77483 -6.22556,4.40787 -1.94814,1.63135 -3.73534,3.41348 -5.05838,5.63096 v 0 l -0.10503,-0.0474 -0.10842,-0.0474 c 0.41504,-1.18582 1.02489,-2.3835 1.7313,-3.48801 0.73352,-1.09435 1.53988,-2.14634 2.42077,-3.13735 1.77365,-1.97524 3.74381,-3.76583 5.81561,-5.4209 2.06333,-1.66015 4.20798,-3.21866 6.42546,-4.67045 2.20733,-1.45517 4.44345,-2.8663 6.73547,-4.18256 2.27678,-1.32643 4.58914,-2.6105 6.89471,-3.86747 v 0 l 6.97094,-3.65233 c 4.59422,-2.46482 9.26974,-4.87035 14.1621,-7.15051 4.84832,-2.22426 9.76779,-4.30623 14.75841,-6.20185 4.98723,-1.910868 10.02358,-3.738728 15.11076,-5.385327 5.08717,-1.699113 10.2167,-3.237294 15.36994,-4.782251 5.16511,-1.502606 10.34037,-2.967943 15.56477,-4.329944 5.21931,-1.372166 10.4725,-2.686734 15.7511,-3.88272 v 0 l 1.98032,-0.459083 1.03336,-0.228694 0.99609,-0.21006 3.96912,-0.830075 c 1.31796,-0.284598 2.65793,-0.542091 4.02502,-0.777561 v 0 l 4.07076,-0.731822 c 2.71892,-0.47941 5.42428,-0.841933 8.14151,-1.270523 v 0 l 8.17709,-1.038441 c 2.73756,-0.269351 5.46834,-0.584441 8.20758,-0.816524 2.74942,-0.206671 5.49544,-0.47941 8.24316,-0.623403 5.51238,-0.359135 11.03153,-0.597993 16.55577,-0.764008 z m -442.980755,-75.763864 2.717226,0.233776 c 5.620797,0.484493 11.192466,1.404352 16.687904,2.602032 5.478498,1.199375 10.882458,2.688428 16.233903,4.27743 5.344669,1.60086 10.60125,3.366041 15.84597,5.254886 5.185432,1.895621 10.347145,3.86578 15.468203,5.944356 2.56307,1.006255 5.078706,2.13448 7.623142,3.19325 2.530883,1.085874 5.021108,2.249673 7.531663,3.367734 v 0 l 7.433407,3.56763 c 2.441097,1.262054 4.895747,2.463122 7.321607,3.772608 v 0 l 3.63539,1.982017 c 1.21801,0.650508 2.4123,1.319651 3.57101,2.005734 v 0 l 3.50496,2.039614 0.8775,0.511597 0.90801,0.547172 1.73299,1.057076 c 4.63148,2.801928 9.20367,5.7054977 13.72504,8.6565006 4.52307,2.9408381 8.97837,5.96637806 13.40148,9.0207171 4.39602,3.0916083 8.78525,6.1713573 13.07454,9.3883233 4.30792,3.167839 8.50743,6.489834 12.63748,9.877897 4.13513,3.372817 8.14829,6.89979 12.04795,10.541958 3.92168,3.704847 7.60281,7.465597 11.1823,11.255145 v 0 l 5.46325,5.664837 c 1.79906,1.92273 3.58118,3.86748 5.32773,5.84611 1.75502,1.97354 3.43211,4.01655 5.06515,6.09682 1.6466,2.07349 3.18817,4.22999 4.62302,6.45764 1.445,2.22427 2.74941,4.54678 3.80479,6.97941 0.52515,1.21632 0.96052,2.4716 1.31118,3.74043 0.31678,1.27052 0.52007,2.59695 0.53362,3.85561 v 0 l -0.0813,0.007 -0.15247,0.0152 c -0.55394,-2.52072 -1.68556,-4.77547 -3.01876,-6.94044 -1.32812,-2.15989 -2.90188,-4.1724 -4.51968,-6.14595 -3.27286,-3.92168 -6.89301,-7.58587 -10.60633,-11.16875 -1.84649,-1.79906 -3.74042,-3.57102 -5.65467,-5.32265 v 0 l -5.75294,-5.3345 c -1.95152,-1.80923 -3.81157,-3.601512 -5.72752,-5.417514 -1.91764,-1.822778 -3.82851,-3.47954 -5.75293,-5.232863 v 0 l -2.93279,-2.570481 c -0.98084,-0.854851 -1.96889,-1.70356 -2.97599,-2.533636 -1.97185,-1.707583 -3.99452,-3.372816 -6.01381,-5.029579 -4.07245,-3.305056 -8.21605,-6.544044 -12.41047,-9.727129 -8.40748,-6.405133 -17.13344,-12.4731543 -26.0288,-18.3633013 -4.46716,-2.949309 -8.96651,-5.866431 -13.48788,-8.7666127 v 0 l -1.7025,-1.087568 -1.67709,-1.048606 -3.45582,-2.134479 c -1.15025,-0.72674 -2.30389,-1.411129 -3.45922,-2.066719 v 0 l -3.45751,-2.002345 c -2.31574,-1.336591 -4.712797,-2.585092 -7.072585,-3.886108 v 0 l -7.204721,-3.691475 c -2.442794,-1.168881 -4.868647,-2.380114 -7.331768,-3.516809 -2.476675,-1.111285 -4.93302,-2.288637 -7.443574,-3.354182 -4.990618,-2.186995 -10.042219,-4.272348 -15.153112,-6.274693 -5.100729,-1.968465 -10.277689,-3.847146 -15.493612,-5.544565 -5.229475,-1.695726 -10.535182,-3.166145 -15.873075,-4.41634 -4.397705,-1.007949 -8.834373,-1.816002 -13.277818,-2.373339 0.997784,1.761793 2.112457,3.482929 3.332159,5.173573 1.800756,2.48345 3.728563,4.955042 5.624185,7.494395 v 0 l 1.41621,1.831248 c 0.47094,0.609852 0.957128,1.167188 1.431457,1.751629 0.972374,1.150247 1.997263,2.305577 3.040786,3.416861 2.100599,2.232734 4.307921,4.37399 6.588089,6.476283 4.562026,4.179175 9.320561,8.241463 13.916469,12.573101 2.324211,2.166666 4.485795,4.3604367 6.716834,6.5321856 v 0 l 6.64738,6.45256506 c 2.207322,2.14464404 4.453608,4.22152704 6.733774,6.25775334 2.261533,2.053166 4.573886,4.036877 6.94553,5.930804 2.375032,1.904091 4.812743,3.706541 7.331768,5.392102 1.243418,0.85718 2.537658,1.646599 3.813265,2.451264 v 0 l 3.928459,2.454651 c 2.607115,1.627964 5.190515,3.283033 7.72817,5.03805 1.47889,1.021501 2.96625,2.02945 4.44683,3.044174 0.3676,0.238859 0.75215,0.457389 1.11467,0.699635 1.46364,0.963904 2.88494,1.973547 4.29437,2.981496 v 0 l 3.26271,2.332681 c 0.66236,0.455695 1.32134,0.921553 1.98709,1.375554 2.4987,1.741464 5.02959,3.410085 7.56386,5.090564 v 0 l -4.39771,-2.707062 c -1.47042,-0.906307 -2.95439,-1.785509 -4.4265,-2.681652 -1.47889,-0.885978 -2.99166,-1.726218 -4.49766,-2.566458 -1.51446,-0.826687 -3.05095,-1.614412 -4.59421,-2.371644 -1.54496,-0.755538 -3.10516,-1.458561 -4.67722,-2.122621 -0.78264,-0.33203 -1.570365,-0.643732 -2.364865,-0.94527 -0.78603,-0.299843 -1.58561,-0.570888 -2.37503,-0.853791 -0.79281,-0.274434 -1.5907,-0.521762 -2.388587,-0.753845 -0.797889,-0.233776 -1.605942,-0.420119 -2.402136,-0.623403 -0.465859,-0.115194 -0.935107,-0.199896 -1.400965,-0.294762 2.158197,3.677743 5.070238,7.033619 8.287198,10.060853 4.082615,3.830205 8.659885,7.192858 13.376075,10.33359 4.71787,3.12549 9.6204,5.9901 14.61271,8.69377 4.98046,2.68674 10.01342,5.28707 15.08197,7.82304 v 0 l 7.57909,3.78108 1.9024,0.91308 1.85496,0.83177 c 1.26714,0.54209 2.53936,1.06893 3.82174,1.57884 5.14138,2.0142 10.43184,3.69637 15.74094,5.41582 2.64946,0.85379 5.3074,1.72621 7.95178,2.66132 v 0 l 3.87425,1.38741 c 1.26375,0.42181 2.58848,0.7962 3.90983,1.20615 v 0 l 3.95556,1.29255 c 1.31287,0.47602 2.63083,0.94866 3.93524,1.5026 1.29085,0.56073 2.58678,1.15533 3.82173,1.90071 0.61493,0.36591 1.22309,0.77248 1.77873,1.25189 0.56242,0.46755 1.10282,1.0503 1.37217,1.7584 v 0 l -0.18973,0.0864 -0.0678,0.0305 c -0.84871,-1.00795 -2.187,-1.41791 -3.41856,-1.88376 -1.27391,-0.41335 -2.56815,-0.77756 -3.88611,-1.09604 -1.31287,-0.32695 -2.63252,-0.64543 -3.96403,-0.93003 v 0 l -4.00639,-0.92324 c -1.33997,-0.32017 -2.68165,-0.65898 -4.06059,-1.04522 -1.45009,-0.41165 -2.67657,-0.88767 -3.99791,-1.30779 -2.61051,-0.85379 -5.25997,-1.65507 -7.91452,-2.44788 -5.33112,-1.59408 -10.7283,-3.17123 -16.09499,-5.14138 -1.34506,-0.48619 -2.67827,-1.01981 -4.00808,-1.57206 v 0 l -2.0159,-0.8809 -1.92781,-0.89953 -7.67735,-3.72518 c -5.11258,-2.50208 -10.25566,-5.03296 -15.30218,-7.82473 -5.06346,-2.77313 -10.07441,-5.72752 -14.94644,-8.97328 C 104.59288,47.631006 99.898723,43.999007 95.602655,39.8571 91.338779,35.703335 87.437424,30.907531 85.042064,25.286735 v 0 l -1.24342,-2.917122 3.089914,0.459082 c 0.728434,0.10503 1.446703,0.243941 2.163279,0.38624 v 0 l -1.22648,-0.662367 C 86.458314,21.793632 85.079373,21.043176 83.74617,20.223265 81.045883,18.612241 78.413359,16.879247 75.863841,15.042917 73.300772,13.218445 70.800382,11.297413 68.364364,9.310314 65.946982,7.309663 63.578725,5.242945 61.25282,3.1457337 c -2.339457,-2.087047 -4.590826,-4.258795 -6.847276,-6.406827 v 0 l -6.721916,-6.44579 c -4.485795,-4.2486307 -9.169792,-8.4345827 -13.631871,-12.9457887 -2.23951,-2.247979 -4.443445,-4.572191 -6.530491,-6.999738 -1.050301,-1.211232 -2.056556,-2.452957 -3.052646,-3.730257 v 0 l -0.980782,-1.294993 v 0 l -0.474392,-0.646367 -1.363694,-1.939666 c -1.705889,-2.551212 -3.593041,-5.039744 -5.388714,-7.657022 -1.81092,-2.612197 -3.554078,-5.351446 -4.934714,-8.255016 v 0 z"
       fill="#293644"
       id="path24"
       style="stroke-width:1.93887" />
    <path
       d="m 223.23441,82.150276 c -0.55395,-2.51902 -1.68556,-4.77547 -3.01876,-6.94044 -1.32812,-2.15989 -2.90188,-4.1741 -4.51968,-6.14595 -3.27287,-3.91999 -6.89132,-7.58587 -10.60633,-11.16875 -1.8465,-1.79906 -3.74042,-3.57102 -5.65468,-5.32265 l -5.75293,-5.3345 c -1.94983,-1.80923 -3.81157,-3.601512 -5.72752,-5.417514 -1.91764,-1.824472 -3.82851,-3.47954 -5.75293,-5.232863 -1.95661,-1.709278 -3.89458,-3.443966 -5.90878,-5.104117 -1.97185,-1.707583 -3.99283,-3.374511 -6.01381,-5.029579 -4.07246,-3.305056 -8.21775,-6.54235 -12.41048,-9.727129 -8.40748,-6.405133 -17.13343,-12.4731543 -26.02879,-18.3633013 -4.46716,-2.949309 -8.96651,-5.864737 -13.48788,-8.7666127 l -1.7025,-1.087568 -1.67709,-1.048606 -3.45583,-2.134479 c -1.15025,-0.72674 -2.30388,-1.411129 -3.45921,-2.066719 l -3.45752,-2.002345 c -2.31574,-1.336591 -4.712787,-2.585092 -7.072575,-3.886108 l -7.204714,-3.691295 c -2.442795,-1.167187 -4.868647,-2.37842 -7.331769,-3.516809 -2.476674,-1.111285 -4.931325,-2.288637 -7.443574,-3.354182 -4.990617,-2.186995 -10.043913,-4.272348 -15.153112,-6.274693 -5.102423,-1.970159 -10.277689,-3.847146 -15.493611,-5.544565 -5.229475,-1.695726 -10.535183,-3.166145 -15.873076,-4.41634 -4.397707,-1.007949 -8.834375,-1.816002 -13.27782,-2.373339 0.997787,1.761793 2.112458,3.482929 3.332161,5.173573 1.800755,2.48345 3.728563,4.955042 5.624185,7.494395 l 1.41621,1.831248 c 0.469246,0.609852 0.955434,1.167188 1.431456,1.751629 0.972375,1.150247 1.997263,2.303882 3.040787,3.416861 2.098905,2.232734 4.307922,4.375684 6.588089,6.476283 4.560332,4.179175 9.320561,8.241463 13.916469,12.573101 2.324211,2.166666 4.484101,4.3604367 6.716834,6.5321856 l 6.64738,6.45256506 c 2.207322,2.14464404 4.453608,4.22152704 6.733774,6.25775334 2.261533,2.053166 4.572192,4.038571 6.94553,5.930804 2.375031,1.904091 4.812743,3.706541 7.331769,5.392102 1.243418,0.85718 2.537657,1.646599 3.813264,2.451264 l 3.928459,2.454651 c 2.607119,1.62627 5.190509,3.283033 7.728164,5.03805 1.47889,1.023195 2.96625,2.031144 4.44683,3.044174 0.36761,0.238859 0.75215,0.457389 1.11468,0.699635 1.46364,0.963904 2.88493,1.973547 4.29437,2.981496 l 3.2627,2.332681 c 0.66237,0.455695 1.32135,0.921553 1.9871,1.375554 2.4987,1.741464 5.02958,3.410085 7.56385,5.090564 l -4.3977,-2.707062 c -1.47042,-0.906307 -2.9544,-1.785509 -4.42651,-2.681652 -1.47889,-0.885978 -2.99335,-1.726218 -4.49765,-2.566458 -1.51447,-0.828381 -3.05095,-1.616106 -4.59421,-2.371644 -1.54496,-0.755538 -3.10516,-1.458561 -4.67723,-2.122621 -0.78264,-0.33203 -1.570355,-0.643732 -2.364855,-0.94527 -0.78603,-0.299843 -1.58731,-0.570888 -2.37504,-0.853791 -0.7928,-0.274434 -1.59069,-0.521762 -2.388581,-0.753845 -0.797888,-0.233776 -1.605942,-0.421813 -2.402136,-0.623403 -0.465859,-0.1135 -0.935106,-0.199896 -1.400965,-0.294762 2.156503,3.677743 5.068542,7.033619 8.287202,10.060853 4.082615,3.830205 8.659885,7.192858 13.376065,10.33359 4.71788,3.12718 9.62041,5.9901 14.61272,8.69377 4.98045,2.68674 10.01342,5.28877 15.08196,7.82304 l 7.5791,3.78108 1.90239,0.91308 1.85497,0.83177 c 1.26713,0.54209 2.53935,1.06893 3.82173,1.57884 5.14139,2.0142 10.43185,3.69637 15.74095,5.41582 2.64946,0.85209 5.30909,1.72621 7.95178,2.66132 l 3.87425,1.38741 c 1.26205,0.42351 2.58678,0.79789 3.90982,1.20615 l 3.95557,1.29255 c 1.31287,0.47602 2.63252,0.94866 3.93523,1.5026 1.29085,0.56073 2.58509,1.15364 3.82174,1.90071 0.61493,0.36591 1.22309,0.77248 1.77873,1.25189 0.56242,0.46755 1.10112,1.0503 1.37217,1.7584 l -0.18974,0.0864 c 0.0745,0.1965 0.11859,0.39979 0.0762,0.62001 l 0.0322,0.008 v 0 l -0.23886,0.65898 c 0,0 12.44605,-3.60151 14.83633,-4.06568 2.39028,-0.46755 4.9957,-0.63018 5.43784,-1.79228 0.44384,-1.16041 0.45908,-2.78668 0.45908,-2.80023 l 0.0356,-0.003 v 0 z"
       fill="#e1eef4"
       opacity="0.5"
       id="path26"
       style="stroke-width:1.93887" />
  </g>
</svg>
