<?xml version="1.0" encoding="UTF-8" standalone="no"?>
<!-- Created with Inkscape (http://www.inkscape.org/) -->

<svg
   width="512"
   height="512"
   viewBox="0 0 135.46667 135.46667"
   version="1.1"
   id="svg5"
   inkscape:version="1.1.2 (0a00cf5339, 2022-02-04)"
   sodipodi:docname="icon.svg"
   inkscape:export-filename="/home/cheb/mvp/portfolio/portfolio-app/build/logo512.png"
   inkscape:export-xdpi="96.000008"
   inkscape:export-ydpi="96.000008"
   xmlns:inkscape="http://www.inkscape.org/namespaces/inkscape"
   xmlns:sodipodi="http://sodipodi.sourceforge.net/DTD/sodipodi-0.dtd"
   xmlns:xlink="http://www.w3.org/1999/xlink"
   xmlns="http://www.w3.org/2000/svg"
   xmlns:svg="http://www.w3.org/2000/svg">
  <sodipodi:namedview
     id="namedview7"
     pagecolor="#ffffff"
     bordercolor="#666666"
     borderopacity="1.0"
     inkscape:pageshadow="2"
     inkscape:pageopacity="0.0"
     inkscape:pagecheckerboard="0"
     inkscape:document-units="mm"
     showgrid="false"
     units="px"
     width="512px"
     inkscape:zoom="1.1474186"
     inkscape:cx="-88.459432"
     inkscape:cy="313.74774"
     inkscape:window-width="2560"
     inkscape:window-height="1043"
     inkscape:window-x="0"
     inkscape:window-y="0"
     inkscape:window-maximized="1"
     inkscape:current-layer="layer1" />
  <defs
     id="defs2">
    <linearGradient
       inkscape:collect="always"
       id="linearGradient7674">
      <stop
         style="stop-color:#383e4a;stop-opacity:1;"
         offset="0"
         id="stop7670" />
      <stop
         style="stop-color:#383e4a;stop-opacity:0;"
         offset="1"
         id="stop7672" />
    </linearGradient>
    <linearGradient
       inkscape:collect="always"
       xlink:href="#linearGradient7674"
       id="linearGradient7676"
       x1="66.925354"
       y1="96.959457"
       x2="67.843506"
       y2="119.1656"
       gradientUnits="userSpaceOnUse" />
  </defs>
  <g
     inkscape:label="Слой 1"
     inkscape:groupmode="layer"
     id="layer1">
    <path
       style="fill:#383e4a;stroke-width:0.263783;fill-opacity:1"
       d="m 62.564039,101.57119 c -7.998916,0.15578 -13.510316,-3.66472 -14.997607,-4.646996 -4.811259,-3.088801 -8.307833,-9.607691 -9.334148,-17.402256 -0.297398,-2.258661 -0.297398,-2.258661 -1.90422,-2.439359 -3.201331,-0.36001 -5.139364,-2.079518 -6.085722,-5.399524 -1.23622,-4.33689 -1.611187,-9.420177 -0.812121,-11.009615 0.482263,-0.95928 2.460986,-2.940939 2.936582,-2.940939 0.118097,0 0.214722,-4.668512 0.214722,-10.374472 0,-11.274926 0.130719,-12.672394 1.513164,-16.176704 2.190868,-5.553546 7.75325,-11.041712 13.402291,-13.223469 2.776422,-1.072302 3.096162,-1.097212 2.389988,-0.186193 -3.216704,4.149797 1.253411,6.423713 5.606958,2.85222 4.122028,-3.381562 6.406397,-3.945871 15.973217,-3.945871 14.313134,0 22.03985,3.681762 26.425255,12.591571 2.270712,4.613398 2.566372,6.577963 2.748712,18.264521 0.15391,9.863831 0.15391,9.863831 1.33226,10.767152 2.40896,1.846705 2.74271,4.270719 1.45569,10.57262 -1.23762,6.059961 -2.91136,7.989764 -6.93082,7.991135 -0.940343,2.66e-4 -0.940343,2.66e-4 -1.400409,2.878584 -1.173486,7.34156 -3.992199,12.406051 -8.078946,15.995694 -3.570266,3.135986 -6.173659,3.735093 -9.063676,4.509471 -5.220216,1.39153 -10.559953,1.59063 -15.39117,1.32243 z m 12.572487,-4.721154 c 12.284792,-2.707473 16.575279,-9.943148 17.543644,-29.586408 0.182783,-3.707757 -0.162288,-5.388004 -0.524946,-2.5561 -1.499267,11.707417 -18.890345,12.07928 -20.188933,0.431686 -0.426708,-3.827328 -9.312936,-4.118977 -9.851231,-0.323321 -1.678766,11.837431 -17.833167,12.122721 -20.198276,0.356704 -0.738764,-3.675216 -1.049381,-2.336242 -0.870122,3.750834 0.547764,18.600253 5.20956,26.110652 17.458609,28.126719 1.080156,0.177784 3.419704,0.411264 6.827232,0.392504 3.407528,-0.01876 7.629045,-0.113269 9.804023,-0.592618 z M 62.262111,92.295764 c -4.521072,-1.239189 -6.637257,-3.351909 -6.637257,-6.626383 0,-3.901311 2.720378,-5.21067 7.847658,-3.777196 2.594307,0.725309 4.383375,0.664092 7.783332,-0.266331 6.422404,-1.757536 9.657522,5.476624 4.060698,9.080265 -3.026089,1.948414 -9.063334,2.683573 -13.054431,1.589645 z m 9.62015,-3.967625 c 3.428546,-1.345979 3.578163,-4.23791 0.162728,-3.145382 -3.315603,1.060593 -7.290739,1.083485 -10.190033,0.05868 -3.123628,-1.1041 -3.926617,1.004916 -0.998381,2.622207 2.518421,1.390948 8.070031,1.624831 11.025686,0.464498 z m -7.685689,-8.812786 c -3.866215,-0.99025 -5.483464,-3.805403 -3.708714,-6.455769 1.410708,-2.106717 2.90346,-1.761934 3.045467,0.703422 0.216521,3.758975 6.509162,3.595222 6.70342,-0.174441 0.179884,-3.490729 3.714257,-1.837232 3.717051,1.738959 0.0024,3.107028 -5.222098,5.349411 -9.757224,4.187829 z M 37.207856,71.83911 c -0.0839,-0.425689 -0.30014,-2.817212 -0.480535,-5.314497 -0.327993,-4.540515 -0.327993,-4.540515 -1.713182,-4.540515 -1.878875,0 -2.505918,0.605656 -2.272442,2.194938 0.956445,6.510617 1.353172,7.794483 2.513506,8.134047 1.699302,0.497291 2.12377,0.394259 1.952653,-0.473973 z m 61.456454,0.108097 c 0.486943,-0.494134 0.544797,-0.690125 1.176132,-3.9843 1.085948,-5.666242 1.061898,-5.830189 -0.879176,-5.993089 -1.943899,-0.163136 -1.963161,-0.146502 -1.963161,1.695341 0,1.720802 -0.436517,7.010379 -0.667149,8.084327 -0.157318,0.732551 1.654982,0.886118 2.333354,0.197721 z M 54.682212,70.082666 c 4.514065,-1.913963 5.457064,-8.119565 1.726281,-11.360157 -4.28447,-3.721532 -11.088469,-0.579612 -11.091245,5.121663 -0.0024,4.783002 4.976082,8.099381 9.364964,6.238494 z M 49.99495,67.036189 c -3.053259,-2.039074 -1.707377,-6.904785 1.91146,-6.910413 3.702542,-0.0058 5.213561,4.751487 2.170234,6.832686 -1.139791,0.779456 -2.978513,0.814468 -4.081694,0.07773 z m 34.988554,2.709004 c 6.197836,-3.285624 3.852381,-12.597287 -3.173048,-12.597287 -2.652698,0 -4.741437,1.377903 -5.921269,3.906155 -2.704716,5.795911 3.453739,11.681342 9.094317,8.691132 z m -5.188625,-2.778754 c -2.923606,-2.106369 -1.558614,-6.845712 1.970205,-6.840663 2.852073,0.0041 4.626532,3.011783 3.305859,5.603416 -0.911707,1.789094 -3.626488,2.425715 -5.276064,1.237247 z m -12.779288,-8.53661 c 1.989805,-0.0046 2.983093,0.12538 4.136715,0.541372 1.518155,0.547444 1.518155,0.547444 2.269084,-0.560121 3.521149,-5.193428 10.692969,-6.199239 15.157667,-2.125783 1.422541,1.297885 1.492205,1.318479 2.955155,0.873693 1.012341,-0.307787 1.012341,-0.307787 1.012341,-5.019418 0,-10.987605 -2.630891,-15.3057 -10.266809,-16.850959 -2.949756,-0.596935 -28.32517,-0.596101 -30.82149,0.0011 -7.362195,1.76102 -10.058026,6.086736 -10.088532,16.188011 -0.01603,5.304166 -0.01603,5.304166 1.216667,5.658908 1.23269,0.354743 1.23269,0.354743 2.621718,-0.793351 4.89688,-4.047494 12.330252,-3.045326 15.278526,2.059854 0.652066,1.129105 0.652066,1.129105 2.281232,0.580978 1.2016,-0.404273 2.316397,-0.549718 4.247726,-0.554195 z M 44.731555,52.570014 c -2.255324,-0.996306 -1.31569,-3.699875 1.545514,-4.446838 1.837501,-0.479708 10.415838,-0.489354 11.73829,-0.01321 3.600392,1.296339 2.193518,5.115166 -1.533806,4.163374 -2.879361,-0.73526 -7.214104,-0.687908 -9.342549,0.10206 -0.850665,0.315721 -1.557676,0.569361 -1.571136,0.56364 -0.01346,-0.0057 -0.389799,-0.171789 -0.836313,-0.369039 z M 86.78572,52.347985 c -2.023696,-0.780301 -6.990848,-0.821655 -9.390706,-0.07818 -1.920704,0.59503 -2.755422,0.346798 -3.398438,-1.010634 -1.274032,-2.689528 3.249855,-4.303233 10.168583,-3.627208 5.486897,0.536122 7.095502,1.630717 5.995815,4.079929 -0.564193,1.256562 -1.371503,1.408708 -3.375254,0.636097 z"
       id="path2986"
       sodipodi:nodetypes="ccssssssssssssssscssccsssssssszssssssssssssssssscssssssssssssssscsscssssssssssscsssssscssssscccscsscccsssssss" />
    <path
       style="fill:url(#linearGradient7676);stroke:none;stroke-width:0.264583px;stroke-linecap:butt;stroke-linejoin:miter;stroke-opacity:1;fill-opacity:1"
       d="m 48.960886,96.400425 c -0.08608,5.520725 1.480941,11.073155 4.331286,14.804805 3.859534,5.05287 7.149574,7.02123 13.513496,7.07337 6.363925,0.0521 10.986615,-2.54087 13.94703,-7.54179 2.444663,-4.12967 3.702698,-6.83146 3.932253,-12.221555 0.232332,-5.455295 -3.510283,-0.465763 -8.581498,0.75961 -5.071216,1.225365 -18.648675,1.411315 -21.450298,-0.459894 -1.111833,-0.826919 -5.59031,-3.487325 -5.692269,-2.414546 z"
       id="path3856"
       sodipodi:nodetypes="cscssscc" />
  </g>
</svg>
