<?xml version="1.0" encoding="UTF-8" standalone="no"?>
<!-- Uploaded to: SVG Repo, www.svgrepo.com, Generator: SVG Repo Mixer Tools -->

<svg
   fill="#000000"
   width="32"
   height="32"
   viewBox="0 0 0.96 0.96"
   version="1.1"
   id="svg827"
   sodipodi:docname="telegram.svg"
   inkscape:version="1.1.2 (0a00cf5339, 2022-02-04)"
   xmlns:inkscape="http://www.inkscape.org/namespaces/inkscape"
   xmlns:sodipodi="http://sodipodi.sourceforge.net/DTD/sodipodi-0.dtd"
   xmlns="http://www.w3.org/2000/svg"
   xmlns:svg="http://www.w3.org/2000/svg">
  <defs
     id="defs831" />
  <sodipodi:namedview
     id="namedview829"
     pagecolor="#ffffff"
     bordercolor="#666666"
     borderopacity="1.0"
     inkscape:pageshadow="2"
     inkscape:pageopacity="0.0"
     inkscape:pagecheckerboard="0"
     showgrid="false"
     inkscape:zoom="12.88"
     inkscape:cx="36.257764"
     inkscape:cy="26.397516"
     inkscape:window-width="2560"
     inkscape:window-height="1043"
     inkscape:window-x="0"
     inkscape:window-y="0"
     inkscape:window-maximized="1"
     inkscape:current-layer="svg827" />
  <path
     d="M 0.48,0 C 0.21492,0 0,0.21492 0,0.48 0,0.74508 0.21492,0.96 0.48,0.96 0.74508,0.96 0.96,0.74508 0.96,0.48 0.96,0.21492 0.74508,0 0.48,0 Z m 0.23576,0.32884 -0.0788,0.3712 C 0.63116,0.72636 0.61548,0.73276 0.5936,0.72036 l -0.12,-0.0884 -0.05784,0.05576 c -0.0056,0.0072 -0.01428,0.0118 -0.024,0.0118 -8e-5,0 -1.2e-4,0 -2e-4,0 L 0.40008,0.57736 0.62248,0.37648 C 0.63208,0.36796 0.62032,0.36312 0.60756,0.37164 L 0.3328,0.54468 0.2144,0.50772 C 0.1888,0.4996 0.18808,0.48212 0.2198,0.46956 L 0.68244,0.29124 C 0.70396,0.2834 0.72268,0.29636 0.71572,0.32888 Z"
     id="path825"
     style="stroke-width:0.04;fill:#ffffff" />
</svg>
